<?xml version="1.0" encoding="UTF-8" standalone="no"?>
<svg width="209.973mm" height="209.973mm"
 viewBox="0 0 2480 2480"
 xmlns="http://www.w3.org/2000/svg" xmlns:xlink="http://www.w3.org/1999/xlink"  version="1.2" baseProfile="tiny">
<desc>Generated with Qt</desc>
<defs>
</defs>
<g fill="none" stroke="black" stroke-width="1" fill-rule="evenodd" stroke-linecap="square" stroke-linejoin="bevel" >

<g fill="none" stroke="#000000" stroke-opacity="1" stroke-width="1" stroke-linecap="square" stroke-linejoin="bevel" transform="matrix(1,0,0,1,0,0)"
font-family="Ubuntu" font-size="45.8333" font-weight="400" font-style="normal" 
>
</g>

<g fill="none" stroke="#000000" stroke-opacity="1" stroke-width="1" stroke-linecap="square" stroke-linejoin="bevel" transform="matrix(11.8095,0,0,11.8095,0,0)"
font-family="Ubuntu" font-size="45.8333" font-weight="400" font-style="normal" 
>
</g>

<g fill="#ffffff" fill-opacity="1" stroke="none" transform="matrix(0.999873,0,0,0.999873,0,0)"
font-family="Ubuntu" font-size="45.8333" font-weight="400" font-style="normal" 
>
<path vector-effect="none" fill-rule="evenodd" d="M-1,-1 L2481.31,-1 L2481.31,2481.31 L-1,2481.31 L-1,-1"/>
</g>

<g fill="none" stroke="#000000" stroke-opacity="1" stroke-width="1" stroke-linecap="square" stroke-linejoin="bevel" transform="matrix(11.8095,0,0,11.8095,0,0)"
font-family="Ubuntu" font-size="45.8333" font-weight="400" font-style="normal" 
>
</g>

<g fill="none" stroke="#000000" stroke-opacity="1" stroke-width="1" stroke-linecap="square" stroke-linejoin="bevel" transform="matrix(11.8095,0,0,11.8095,0,0)"
font-family="Ubuntu" font-size="45.8333" font-weight="400" font-style="normal" 
>
</g>

<g fill="none" stroke="#000000" stroke-opacity="1" stroke-width="1" stroke-linecap="square" stroke-linejoin="bevel" transform="matrix(11.8095,0,0,11.8095,656.877,158.258)"
font-family="Ubuntu" font-size="45.8333" font-weight="400" font-style="normal" 
>
</g>

<g fill="#ffffff" fill-opacity="1" stroke="none" transform="matrix(11.8095,0,0,11.8095,656.877,158.258)"
font-family="Ubuntu" font-size="45.8333" font-weight="400" font-style="normal" 
>
<path vector-effect="non-scaling-stroke" fill-rule="evenodd" d="M0,0 L92.7547,0 L92.7547,146.8 L0,146.8 L0,0"/>
</g>

<g fill="none" stroke="#000000" stroke-opacity="1" stroke-width="1" stroke-linecap="square" stroke-linejoin="bevel" transform="matrix(11.8095,0,0,11.8095,656.877,158.258)"
font-family="Ubuntu" font-size="45.8333" font-weight="400" font-style="normal" 
>
</g>

<g fill="none" stroke="#000000" stroke-opacity="1" stroke-width="1" stroke-linecap="square" stroke-linejoin="bevel" transform="matrix(11.8095,0,0,11.8095,656.877,158.258)"
font-family="Ubuntu" font-size="45.8333" font-weight="400" font-style="normal" 
>
</g>

<g fill="none" stroke="#000000" stroke-opacity="1" stroke-width="1" stroke-linecap="square" stroke-linejoin="bevel" transform="matrix(1.18095,0,0,1.18095,656.877,158.258)"
font-family="Ubuntu" font-size="42" font-weight="400" font-style="normal" 
>
<text fill="#000000" fill-opacity="1" stroke="none" xml:space="preserve" x="20" y="158" font-family="Ubuntu" font-size="42" font-weight="400" font-style="normal" 
 >geom_hr_L50m_fl1_r.li.richness_UE_hr_20cells</text>
</g>

<g fill="none" stroke="#000000" stroke-opacity="1" stroke-width="1" stroke-linecap="square" stroke-linejoin="bevel" transform="matrix(11.8095,0,0,11.8095,656.877,158.258)"
font-family="Ubuntu" font-size="45.8333" font-weight="400" font-style="normal" 
>
</g>

<g fill="#2c7bb6" fill-opacity="1" stroke="#000000" stroke-opacity="1" stroke-width="1" stroke-linecap="square" stroke-linejoin="bevel" transform="matrix(11.8095,0,0,11.8095,656.877,158.258)"
font-family="Ubuntu" font-size="45.8333" font-weight="400" font-style="normal" 
>
<path vector-effect="non-scaling-stroke" fill-rule="evenodd" d="M2,19.3 L9,19.3 L9,23.3 L2,23.3 L2,19.3"/>
</g>

<g fill="#2c7bb6" fill-opacity="1" stroke="#000000" stroke-opacity="1" stroke-width="1" stroke-linecap="square" stroke-linejoin="bevel" transform="matrix(1.18095,0,0,1.18095,656.877,158.258)"
font-family="Ubuntu" font-size="42" font-weight="400" font-style="normal" 
>
<text fill="#000000" fill-opacity="1" stroke="none" xml:space="preserve" x="110" y="229" font-family="Ubuntu" font-size="42" font-weight="400" font-style="normal" 
 >0.000000</text>
</g>

<g fill="#2c7bb6" fill-opacity="1" stroke="#000000" stroke-opacity="1" stroke-width="1" stroke-linecap="square" stroke-linejoin="bevel" transform="matrix(11.8095,0,0,11.8095,656.877,158.258)"
font-family="Ubuntu" font-size="45.8333" font-weight="400" font-style="normal" 
>
</g>

<g fill="#64a4cc" fill-opacity="1" stroke="#000000" stroke-opacity="1" stroke-width="1" stroke-linecap="square" stroke-linejoin="bevel" transform="matrix(11.8095,0,0,11.8095,656.877,158.258)"
font-family="Ubuntu" font-size="45.8333" font-weight="400" font-style="normal" 
>
<path vector-effect="non-scaling-stroke" fill-rule="evenodd" d="M2,25.3 L9,25.3 L9,29.3 L2,29.3 L2,25.3"/>
</g>

<g fill="#64a4cc" fill-opacity="1" stroke="#000000" stroke-opacity="1" stroke-width="1" stroke-linecap="square" stroke-linejoin="bevel" transform="matrix(1.18095,0,0,1.18095,656.877,158.258)"
font-family="Ubuntu" font-size="42" font-weight="400" font-style="normal" 
>
<text fill="#000000" fill-opacity="1" stroke="none" xml:space="preserve" x="110" y="289" font-family="Ubuntu" font-size="42" font-weight="400" font-style="normal" 
 >1.111111</text>
</g>

<g fill="#64a4cc" fill-opacity="1" stroke="#000000" stroke-opacity="1" stroke-width="1" stroke-linecap="square" stroke-linejoin="bevel" transform="matrix(11.8095,0,0,11.8095,656.877,158.258)"
font-family="Ubuntu" font-size="45.8333" font-weight="400" font-style="normal" 
>
</g>

<g fill="#9ccee3" fill-opacity="1" stroke="#000000" stroke-opacity="1" stroke-width="1" stroke-linecap="square" stroke-linejoin="bevel" transform="matrix(11.8095,0,0,11.8095,656.877,158.258)"
font-family="Ubuntu" font-size="45.8333" font-weight="400" font-style="normal" 
>
<path vector-effect="non-scaling-stroke" fill-rule="evenodd" d="M2,31.3 L9,31.3 L9,35.3 L2,35.3 L2,31.3"/>
</g>

<g fill="#9ccee3" fill-opacity="1" stroke="#000000" stroke-opacity="1" stroke-width="1" stroke-linecap="square" stroke-linejoin="bevel" transform="matrix(1.18095,0,0,1.18095,656.877,158.258)"
font-family="Ubuntu" font-size="42" font-weight="400" font-style="normal" 
>
<text fill="#000000" fill-opacity="1" stroke="none" xml:space="preserve" x="110" y="349" font-family="Ubuntu" font-size="42" font-weight="400" font-style="normal" 
 >2.222222</text>
</g>

<g fill="#9ccee3" fill-opacity="1" stroke="#000000" stroke-opacity="1" stroke-width="1" stroke-linecap="square" stroke-linejoin="bevel" transform="matrix(11.8095,0,0,11.8095,656.877,158.258)"
font-family="Ubuntu" font-size="45.8333" font-weight="400" font-style="normal" 
>
</g>

<g fill="#c7e5db" fill-opacity="1" stroke="#000000" stroke-opacity="1" stroke-width="1" stroke-linecap="square" stroke-linejoin="bevel" transform="matrix(11.8095,0,0,11.8095,656.877,158.258)"
font-family="Ubuntu" font-size="45.8333" font-weight="400" font-style="normal" 
>
<path vector-effect="non-scaling-stroke" fill-rule="evenodd" d="M2,37.3 L9,37.3 L9,41.3 L2,41.3 L2,37.3"/>
</g>

<g fill="#c7e5db" fill-opacity="1" stroke="#000000" stroke-opacity="1" stroke-width="1" stroke-linecap="square" stroke-linejoin="bevel" transform="matrix(1.18095,0,0,1.18095,656.877,158.258)"
font-family="Ubuntu" font-size="42" font-weight="400" font-style="normal" 
>
<text fill="#000000" fill-opacity="1" stroke="none" xml:space="preserve" x="110" y="409" font-family="Ubuntu" font-size="42" font-weight="400" font-style="normal" 
 >3.333333</text>
</g>

<g fill="#c7e5db" fill-opacity="1" stroke="#000000" stroke-opacity="1" stroke-width="1" stroke-linecap="square" stroke-linejoin="bevel" transform="matrix(11.8095,0,0,11.8095,656.877,158.258)"
font-family="Ubuntu" font-size="45.8333" font-weight="400" font-style="normal" 
>
</g>

<g fill="#ecf6c8" fill-opacity="1" stroke="#000000" stroke-opacity="1" stroke-width="1" stroke-linecap="square" stroke-linejoin="bevel" transform="matrix(11.8095,0,0,11.8095,656.877,158.258)"
font-family="Ubuntu" font-size="45.8333" font-weight="400" font-style="normal" 
>
<path vector-effect="non-scaling-stroke" fill-rule="evenodd" d="M2,43.3 L9,43.3 L9,47.3 L2,47.3 L2,43.3"/>
</g>

<g fill="#ecf6c8" fill-opacity="1" stroke="#000000" stroke-opacity="1" stroke-width="1" stroke-linecap="square" stroke-linejoin="bevel" transform="matrix(1.18095,0,0,1.18095,656.877,158.258)"
font-family="Ubuntu" font-size="42" font-weight="400" font-style="normal" 
>
<text fill="#000000" fill-opacity="1" stroke="none" xml:space="preserve" x="110" y="469" font-family="Ubuntu" font-size="42" font-weight="400" font-style="normal" 
 >4.444444</text>
</g>

<g fill="#ecf6c8" fill-opacity="1" stroke="#000000" stroke-opacity="1" stroke-width="1" stroke-linecap="square" stroke-linejoin="bevel" transform="matrix(11.8095,0,0,11.8095,656.877,158.258)"
font-family="Ubuntu" font-size="45.8333" font-weight="400" font-style="normal" 
>
</g>

<g fill="#feedaa" fill-opacity="1" stroke="#000000" stroke-opacity="1" stroke-width="1" stroke-linecap="square" stroke-linejoin="bevel" transform="matrix(11.8095,0,0,11.8095,656.877,158.258)"
font-family="Ubuntu" font-size="45.8333" font-weight="400" font-style="normal" 
>
<path vector-effect="non-scaling-stroke" fill-rule="evenodd" d="M2,49.3 L9,49.3 L9,53.3 L2,53.3 L2,49.3"/>
</g>

<g fill="#feedaa" fill-opacity="1" stroke="#000000" stroke-opacity="1" stroke-width="1" stroke-linecap="square" stroke-linejoin="bevel" transform="matrix(1.18095,0,0,1.18095,656.877,158.258)"
font-family="Ubuntu" font-size="42" font-weight="400" font-style="normal" 
>
<text fill="#000000" fill-opacity="1" stroke="none" xml:space="preserve" x="110" y="529" font-family="Ubuntu" font-size="42" font-weight="400" font-style="normal" 
 >5.555556</text>
</g>

<g fill="#feedaa" fill-opacity="1" stroke="#000000" stroke-opacity="1" stroke-width="1" stroke-linecap="square" stroke-linejoin="bevel" transform="matrix(11.8095,0,0,11.8095,656.877,158.258)"
font-family="Ubuntu" font-size="45.8333" font-weight="400" font-style="normal" 
>
</g>

<g fill="#fdc980" fill-opacity="1" stroke="#000000" stroke-opacity="1" stroke-width="1" stroke-linecap="square" stroke-linejoin="bevel" transform="matrix(11.8095,0,0,11.8095,656.877,158.258)"
font-family="Ubuntu" font-size="45.8333" font-weight="400" font-style="normal" 
>
<path vector-effect="non-scaling-stroke" fill-rule="evenodd" d="M2,55.3 L9,55.3 L9,59.3 L2,59.3 L2,55.3"/>
</g>

<g fill="#fdc980" fill-opacity="1" stroke="#000000" stroke-opacity="1" stroke-width="1" stroke-linecap="square" stroke-linejoin="bevel" transform="matrix(1.18095,0,0,1.18095,656.877,158.258)"
font-family="Ubuntu" font-size="42" font-weight="400" font-style="normal" 
>
<text fill="#000000" fill-opacity="1" stroke="none" xml:space="preserve" x="110" y="589" font-family="Ubuntu" font-size="42" font-weight="400" font-style="normal" 
 >6.666667</text>
</g>

<g fill="#fdc980" fill-opacity="1" stroke="#000000" stroke-opacity="1" stroke-width="1" stroke-linecap="square" stroke-linejoin="bevel" transform="matrix(11.8095,0,0,11.8095,656.877,158.258)"
font-family="Ubuntu" font-size="45.8333" font-weight="400" font-style="normal" 
>
</g>

<g fill="#f89d59" fill-opacity="1" stroke="#000000" stroke-opacity="1" stroke-width="1" stroke-linecap="square" stroke-linejoin="bevel" transform="matrix(11.8095,0,0,11.8095,656.877,158.258)"
font-family="Ubuntu" font-size="45.8333" font-weight="400" font-style="normal" 
>
<path vector-effect="non-scaling-stroke" fill-rule="evenodd" d="M2,61.3 L9,61.3 L9,65.3 L2,65.3 L2,61.3"/>
</g>

<g fill="#f89d59" fill-opacity="1" stroke="#000000" stroke-opacity="1" stroke-width="1" stroke-linecap="square" stroke-linejoin="bevel" transform="matrix(1.18095,0,0,1.18095,656.877,158.258)"
font-family="Ubuntu" font-size="42" font-weight="400" font-style="normal" 
>
<text fill="#000000" fill-opacity="1" stroke="none" xml:space="preserve" x="110" y="649" font-family="Ubuntu" font-size="42" font-weight="400" font-style="normal" 
 >7.777778</text>
</g>

<g fill="#f89d59" fill-opacity="1" stroke="#000000" stroke-opacity="1" stroke-width="1" stroke-linecap="square" stroke-linejoin="bevel" transform="matrix(11.8095,0,0,11.8095,656.877,158.258)"
font-family="Ubuntu" font-size="45.8333" font-weight="400" font-style="normal" 
>
</g>

<g fill="#e75b3a" fill-opacity="1" stroke="#000000" stroke-opacity="1" stroke-width="1" stroke-linecap="square" stroke-linejoin="bevel" transform="matrix(11.8095,0,0,11.8095,656.877,158.258)"
font-family="Ubuntu" font-size="45.8333" font-weight="400" font-style="normal" 
>
<path vector-effect="non-scaling-stroke" fill-rule="evenodd" d="M2,67.3 L9,67.3 L9,71.3 L2,71.3 L2,67.3"/>
</g>

<g fill="#e75b3a" fill-opacity="1" stroke="#000000" stroke-opacity="1" stroke-width="1" stroke-linecap="square" stroke-linejoin="bevel" transform="matrix(1.18095,0,0,1.18095,656.877,158.258)"
font-family="Ubuntu" font-size="42" font-weight="400" font-style="normal" 
>
<text fill="#000000" fill-opacity="1" stroke="none" xml:space="preserve" x="110" y="709" font-family="Ubuntu" font-size="42" font-weight="400" font-style="normal" 
 >8.888889</text>
</g>

<g fill="#e75b3a" fill-opacity="1" stroke="#000000" stroke-opacity="1" stroke-width="1" stroke-linecap="square" stroke-linejoin="bevel" transform="matrix(11.8095,0,0,11.8095,656.877,158.258)"
font-family="Ubuntu" font-size="45.8333" font-weight="400" font-style="normal" 
>
</g>

<g fill="#d7191c" fill-opacity="1" stroke="#000000" stroke-opacity="1" stroke-width="1" stroke-linecap="square" stroke-linejoin="bevel" transform="matrix(11.8095,0,0,11.8095,656.877,158.258)"
font-family="Ubuntu" font-size="45.8333" font-weight="400" font-style="normal" 
>
<path vector-effect="non-scaling-stroke" fill-rule="evenodd" d="M2,73.3 L9,73.3 L9,77.3 L2,77.3 L2,73.3"/>
</g>

<g fill="#d7191c" fill-opacity="1" stroke="#000000" stroke-opacity="1" stroke-width="1" stroke-linecap="square" stroke-linejoin="bevel" transform="matrix(1.18095,0,0,1.18095,656.877,158.258)"
font-family="Ubuntu" font-size="42" font-weight="400" font-style="normal" 
>
<text fill="#000000" fill-opacity="1" stroke="none" xml:space="preserve" x="110" y="769" font-family="Ubuntu" font-size="42" font-weight="400" font-style="normal" 
 >10.000000</text>
</g>

<g fill="#d7191c" fill-opacity="1" stroke="#000000" stroke-opacity="1" stroke-width="1" stroke-linecap="square" stroke-linejoin="bevel" transform="matrix(11.8095,0,0,11.8095,656.877,158.258)"
font-family="Ubuntu" font-size="45.8333" font-weight="400" font-style="normal" 
>
</g>

<g fill="#d7191c" fill-opacity="1" stroke="#000000" stroke-opacity="1" stroke-width="1" stroke-linecap="square" stroke-linejoin="bevel" transform="matrix(1.18095,0,0,1.18095,656.877,158.258)"
font-family="Ubuntu" font-size="42" font-weight="400" font-style="normal" 
>
<text fill="#000000" fill-opacity="1" stroke="none" xml:space="preserve" x="20" y="833" font-family="Ubuntu" font-size="42" font-weight="400" font-style="normal" 
 >geom_hr_L3_fl10</text>
</g>

<g fill="#d7191c" fill-opacity="1" stroke="#000000" stroke-opacity="1" stroke-width="1" stroke-linecap="square" stroke-linejoin="bevel" transform="matrix(11.8095,0,0,11.8095,656.877,158.258)"
font-family="Ubuntu" font-size="45.8333" font-weight="400" font-style="normal" 
>
</g>

<g fill="#e2e0e1" fill-opacity="1" stroke="#000000" stroke-opacity="1" stroke-width="1" stroke-linecap="square" stroke-linejoin="bevel" transform="matrix(11.8095,0,0,11.8095,656.877,158.258)"
font-family="Ubuntu" font-size="45.8333" font-weight="400" font-style="normal" 
>
<path vector-effect="non-scaling-stroke" fill-rule="evenodd" d="M2,86.8 L9,86.8 L9,90.8 L2,90.8 L2,86.8"/>
</g>

<g fill="#e2e0e1" fill-opacity="1" stroke="#000000" stroke-opacity="1" stroke-width="1" stroke-linecap="square" stroke-linejoin="bevel" transform="matrix(1.18095,0,0,1.18095,656.877,158.258)"
font-family="Ubuntu" font-size="42" font-weight="400" font-style="normal" 
>
<text fill="#000000" fill-opacity="1" stroke="none" xml:space="preserve" x="110" y="904" font-family="Ubuntu" font-size="42" font-weight="400" font-style="normal" 
 >flat</text>
</g>

<g fill="#e2e0e1" fill-opacity="1" stroke="#000000" stroke-opacity="1" stroke-width="1" stroke-linecap="square" stroke-linejoin="bevel" transform="matrix(11.8095,0,0,11.8095,656.877,158.258)"
font-family="Ubuntu" font-size="45.8333" font-weight="400" font-style="normal" 
>
</g>

<g fill="#000000" fill-opacity="1" stroke="#000000" stroke-opacity="1" stroke-width="1" stroke-linecap="square" stroke-linejoin="bevel" transform="matrix(11.8095,0,0,11.8095,656.877,158.258)"
font-family="Ubuntu" font-size="45.8333" font-weight="400" font-style="normal" 
>
<path vector-effect="non-scaling-stroke" fill-rule="evenodd" d="M2,92.8 L9,92.8 L9,96.8 L2,96.8 L2,92.8"/>
</g>

<g fill="#000000" fill-opacity="1" stroke="#000000" stroke-opacity="1" stroke-width="1" stroke-linecap="square" stroke-linejoin="bevel" transform="matrix(1.18095,0,0,1.18095,656.877,158.258)"
font-family="Ubuntu" font-size="42" font-weight="400" font-style="normal" 
>
<text fill="#000000" fill-opacity="1" stroke="none" xml:space="preserve" x="110" y="964" font-family="Ubuntu" font-size="42" font-weight="400" font-style="normal" 
 >peak</text>
</g>

<g fill="#000000" fill-opacity="1" stroke="#000000" stroke-opacity="1" stroke-width="1" stroke-linecap="square" stroke-linejoin="bevel" transform="matrix(11.8095,0,0,11.8095,656.877,158.258)"
font-family="Ubuntu" font-size="45.8333" font-weight="400" font-style="normal" 
>
</g>

<g fill="#c0262a" fill-opacity="1" stroke="#000000" stroke-opacity="1" stroke-width="1" stroke-linecap="square" stroke-linejoin="bevel" transform="matrix(11.8095,0,0,11.8095,656.877,158.258)"
font-family="Ubuntu" font-size="45.8333" font-weight="400" font-style="normal" 
>
<path vector-effect="non-scaling-stroke" fill-rule="evenodd" d="M2,98.8 L9,98.8 L9,102.8 L2,102.8 L2,98.8"/>
</g>

<g fill="#c0262a" fill-opacity="1" stroke="#000000" stroke-opacity="1" stroke-width="1" stroke-linecap="square" stroke-linejoin="bevel" transform="matrix(1.18095,0,0,1.18095,656.877,158.258)"
font-family="Ubuntu" font-size="42" font-weight="400" font-style="normal" 
>
<text fill="#000000" fill-opacity="1" stroke="none" xml:space="preserve" x="110" y="1024" font-family="Ubuntu" font-size="42" font-weight="400" font-style="normal" 
 >ridge</text>
</g>

<g fill="#c0262a" fill-opacity="1" stroke="#000000" stroke-opacity="1" stroke-width="1" stroke-linecap="square" stroke-linejoin="bevel" transform="matrix(11.8095,0,0,11.8095,656.877,158.258)"
font-family="Ubuntu" font-size="45.8333" font-weight="400" font-style="normal" 
>
</g>

<g fill="#d78321" fill-opacity="1" stroke="#000000" stroke-opacity="1" stroke-width="1" stroke-linecap="square" stroke-linejoin="bevel" transform="matrix(11.8095,0,0,11.8095,656.877,158.258)"
font-family="Ubuntu" font-size="45.8333" font-weight="400" font-style="normal" 
>
<path vector-effect="non-scaling-stroke" fill-rule="evenodd" d="M2,104.8 L9,104.8 L9,108.8 L2,108.8 L2,104.8"/>
</g>

<g fill="#d78321" fill-opacity="1" stroke="#000000" stroke-opacity="1" stroke-width="1" stroke-linecap="square" stroke-linejoin="bevel" transform="matrix(1.18095,0,0,1.18095,656.877,158.258)"
font-family="Ubuntu" font-size="42" font-weight="400" font-style="normal" 
>
<text fill="#000000" fill-opacity="1" stroke="none" xml:space="preserve" x="110" y="1084" font-family="Ubuntu" font-size="42" font-weight="400" font-style="normal" 
 >shoulder</text>
</g>

<g fill="#d78321" fill-opacity="1" stroke="#000000" stroke-opacity="1" stroke-width="1" stroke-linecap="square" stroke-linejoin="bevel" transform="matrix(11.8095,0,0,11.8095,656.877,158.258)"
font-family="Ubuntu" font-size="45.8333" font-weight="400" font-style="normal" 
>
</g>

<g fill="#e7cb3c" fill-opacity="1" stroke="#000000" stroke-opacity="1" stroke-width="1" stroke-linecap="square" stroke-linejoin="bevel" transform="matrix(11.8095,0,0,11.8095,656.877,158.258)"
font-family="Ubuntu" font-size="45.8333" font-weight="400" font-style="normal" 
>
<path vector-effect="non-scaling-stroke" fill-rule="evenodd" d="M2,110.8 L9,110.8 L9,114.8 L2,114.8 L2,110.8"/>
</g>

<g fill="#e7cb3c" fill-opacity="1" stroke="#000000" stroke-opacity="1" stroke-width="1" stroke-linecap="square" stroke-linejoin="bevel" transform="matrix(1.18095,0,0,1.18095,656.877,158.258)"
font-family="Ubuntu" font-size="42" font-weight="400" font-style="normal" 
>
<text fill="#000000" fill-opacity="1" stroke="none" xml:space="preserve" x="110" y="1144" font-family="Ubuntu" font-size="42" font-weight="400" font-style="normal" 
 >spur</text>
</g>

<g fill="#e7cb3c" fill-opacity="1" stroke="#000000" stroke-opacity="1" stroke-width="1" stroke-linecap="square" stroke-linejoin="bevel" transform="matrix(11.8095,0,0,11.8095,656.877,158.258)"
font-family="Ubuntu" font-size="45.8333" font-weight="400" font-style="normal" 
>
</g>

<g fill="#fcea0d" fill-opacity="1" stroke="#000000" stroke-opacity="1" stroke-width="1" stroke-linecap="square" stroke-linejoin="bevel" transform="matrix(11.8095,0,0,11.8095,656.877,158.258)"
font-family="Ubuntu" font-size="45.8333" font-weight="400" font-style="normal" 
>
<path vector-effect="non-scaling-stroke" fill-rule="evenodd" d="M2,116.8 L9,116.8 L9,120.8 L2,120.8 L2,116.8"/>
</g>

<g fill="#fcea0d" fill-opacity="1" stroke="#000000" stroke-opacity="1" stroke-width="1" stroke-linecap="square" stroke-linejoin="bevel" transform="matrix(1.18095,0,0,1.18095,656.877,158.258)"
font-family="Ubuntu" font-size="42" font-weight="400" font-style="normal" 
>
<text fill="#000000" fill-opacity="1" stroke="none" xml:space="preserve" x="110" y="1204" font-family="Ubuntu" font-size="42" font-weight="400" font-style="normal" 
 >slope</text>
</g>

<g fill="#fcea0d" fill-opacity="1" stroke="#000000" stroke-opacity="1" stroke-width="1" stroke-linecap="square" stroke-linejoin="bevel" transform="matrix(11.8095,0,0,11.8095,656.877,158.258)"
font-family="Ubuntu" font-size="45.8333" font-weight="400" font-style="normal" 
>
</g>

<g fill="#bfd71c" fill-opacity="1" stroke="#000000" stroke-opacity="1" stroke-width="1" stroke-linecap="square" stroke-linejoin="bevel" transform="matrix(11.8095,0,0,11.8095,656.877,158.258)"
font-family="Ubuntu" font-size="45.8333" font-weight="400" font-style="normal" 
>
<path vector-effect="non-scaling-stroke" fill-rule="evenodd" d="M2,122.8 L9,122.8 L9,126.8 L2,126.8 L2,122.8"/>
</g>

<g fill="#bfd71c" fill-opacity="1" stroke="#000000" stroke-opacity="1" stroke-width="1" stroke-linecap="square" stroke-linejoin="bevel" transform="matrix(1.18095,0,0,1.18095,656.877,158.258)"
font-family="Ubuntu" font-size="42" font-weight="400" font-style="normal" 
>
<text fill="#000000" fill-opacity="1" stroke="none" xml:space="preserve" x="110" y="1264" font-family="Ubuntu" font-size="42" font-weight="400" font-style="normal" 
 >hollow</text>
</g>

<g fill="#bfd71c" fill-opacity="1" stroke="#000000" stroke-opacity="1" stroke-width="1" stroke-linecap="square" stroke-linejoin="bevel" transform="matrix(11.8095,0,0,11.8095,656.877,158.258)"
font-family="Ubuntu" font-size="45.8333" font-weight="400" font-style="normal" 
>
</g>

<g fill="#82b16b" fill-opacity="1" stroke="#000000" stroke-opacity="1" stroke-width="1" stroke-linecap="square" stroke-linejoin="bevel" transform="matrix(11.8095,0,0,11.8095,656.877,158.258)"
font-family="Ubuntu" font-size="45.8333" font-weight="400" font-style="normal" 
>
<path vector-effect="non-scaling-stroke" fill-rule="evenodd" d="M2,128.8 L9,128.8 L9,132.8 L2,132.8 L2,128.8"/>
</g>

<g fill="#82b16b" fill-opacity="1" stroke="#000000" stroke-opacity="1" stroke-width="1" stroke-linecap="square" stroke-linejoin="bevel" transform="matrix(1.18095,0,0,1.18095,656.877,158.258)"
font-family="Ubuntu" font-size="42" font-weight="400" font-style="normal" 
>
<text fill="#000000" fill-opacity="1" stroke="none" xml:space="preserve" x="110" y="1324" font-family="Ubuntu" font-size="42" font-weight="400" font-style="normal" 
 >footslope</text>
</g>

<g fill="#82b16b" fill-opacity="1" stroke="#000000" stroke-opacity="1" stroke-width="1" stroke-linecap="square" stroke-linejoin="bevel" transform="matrix(11.8095,0,0,11.8095,656.877,158.258)"
font-family="Ubuntu" font-size="45.8333" font-weight="400" font-style="normal" 
>
</g>

<g fill="#3e3ab8" fill-opacity="1" stroke="#000000" stroke-opacity="1" stroke-width="1" stroke-linecap="square" stroke-linejoin="bevel" transform="matrix(11.8095,0,0,11.8095,656.877,158.258)"
font-family="Ubuntu" font-size="45.8333" font-weight="400" font-style="normal" 
>
<path vector-effect="non-scaling-stroke" fill-rule="evenodd" d="M2,134.8 L9,134.8 L9,138.8 L2,138.8 L2,134.8"/>
</g>

<g fill="#3e3ab8" fill-opacity="1" stroke="#000000" stroke-opacity="1" stroke-width="1" stroke-linecap="square" stroke-linejoin="bevel" transform="matrix(1.18095,0,0,1.18095,656.877,158.258)"
font-family="Ubuntu" font-size="42" font-weight="400" font-style="normal" 
>
<text fill="#000000" fill-opacity="1" stroke="none" xml:space="preserve" x="110" y="1384" font-family="Ubuntu" font-size="42" font-weight="400" font-style="normal" 
 >valley</text>
</g>

<g fill="#3e3ab8" fill-opacity="1" stroke="#000000" stroke-opacity="1" stroke-width="1" stroke-linecap="square" stroke-linejoin="bevel" transform="matrix(11.8095,0,0,11.8095,656.877,158.258)"
font-family="Ubuntu" font-size="45.8333" font-weight="400" font-style="normal" 
>
</g>

<g fill="#000000" fill-opacity="1" stroke="#000000" stroke-opacity="1" stroke-width="1" stroke-linecap="square" stroke-linejoin="bevel" transform="matrix(11.8095,0,0,11.8095,656.877,158.258)"
font-family="Ubuntu" font-size="45.8333" font-weight="400" font-style="normal" 
>
<path vector-effect="non-scaling-stroke" fill-rule="evenodd" d="M2,140.8 L9,140.8 L9,144.8 L2,144.8 L2,140.8"/>
</g>

<g fill="#000000" fill-opacity="1" stroke="#000000" stroke-opacity="1" stroke-width="1" stroke-linecap="square" stroke-linejoin="bevel" transform="matrix(1.18095,0,0,1.18095,656.877,158.258)"
font-family="Ubuntu" font-size="42" font-weight="400" font-style="normal" 
>
<text fill="#000000" fill-opacity="1" stroke="none" xml:space="preserve" x="110" y="1444" font-family="Ubuntu" font-size="42" font-weight="400" font-style="normal" 
 >pit</text>
</g>

<g fill="#000000" fill-opacity="1" stroke="#000000" stroke-opacity="1" stroke-width="1" stroke-linecap="square" stroke-linejoin="bevel" transform="matrix(11.8095,0,0,11.8095,656.877,158.258)"
font-family="Ubuntu" font-size="45.8333" font-weight="400" font-style="normal" 
>
</g>

<g fill="#000000" fill-opacity="1" stroke="#000000" stroke-opacity="1" stroke-width="1" stroke-linecap="square" stroke-linejoin="bevel" transform="matrix(1.18095,0,0,1.18095,656.877,158.258)"
font-family="Ubuntu" font-size="56" font-weight="400" font-style="normal" 
>
<text fill="#000000" fill-opacity="1" stroke="none" xml:space="preserve" x="20" y="72.1406" font-family="Ubuntu" font-size="56" font-weight="400" font-style="normal" 
 >Legend</text>
</g>

<g fill="#000000" fill-opacity="1" stroke="#000000" stroke-opacity="1" stroke-width="1" stroke-linecap="square" stroke-linejoin="bevel" transform="matrix(11.8095,0,0,11.8095,656.877,158.258)"
font-family="Ubuntu" font-size="45.8333" font-weight="400" font-style="normal" 
>
</g>

<g fill="none" stroke="#000000" stroke-opacity="1" stroke-width="1" stroke-linecap="square" stroke-linejoin="bevel" transform="matrix(11.8095,0,0,11.8095,656.877,158.258)"
font-family="Ubuntu" font-size="45.8333" font-weight="400" font-style="normal" 
>
</g>

<g fill="none" stroke="#000000" stroke-opacity="1" stroke-width="1" stroke-linecap="square" stroke-linejoin="bevel" transform="matrix(11.8095,0,0,11.8095,656.877,158.258)"
font-family="Ubuntu" font-size="45.8333" font-weight="400" font-style="normal" 
>
</g>

<g fill="none" stroke="#000000" stroke-opacity="1" stroke-width="1" stroke-linecap="square" stroke-linejoin="bevel" transform="matrix(11.8095,0,0,11.8095,0,0)"
font-family="Ubuntu" font-size="45.8333" font-weight="400" font-style="normal" 
>
</g>

<g fill="none" stroke="#000000" stroke-opacity="1" stroke-width="1" stroke-linecap="square" stroke-linejoin="bevel" transform="matrix(11.8095,0,0,11.8095,0,0)"
font-family="Ubuntu" font-size="45.8333" font-weight="400" font-style="normal" 
>
</g>

<g fill="none" stroke="#000000" stroke-opacity="1" stroke-width="1" stroke-linecap="square" stroke-linejoin="bevel" transform="matrix(1,0,0,1,0,0)"
font-family="Ubuntu" font-size="45.8333" font-weight="400" font-style="normal" 
>
</g>
</g>
</svg>
