<?xml version="1.0" encoding="UTF-8" standalone="no"?>
<svg width="209.973mm" height="296.926mm"
 viewBox="0 0 2480 3507"
 xmlns="http://www.w3.org/2000/svg" xmlns:xlink="http://www.w3.org/1999/xlink"  version="1.2" baseProfile="tiny">
<desc>Generated with Qt</desc>
<defs>
</defs>
<g fill="none" stroke="black" stroke-width="1" fill-rule="evenodd" stroke-linecap="square" stroke-linejoin="bevel" >

<g fill="none" stroke="#000000" stroke-opacity="1" stroke-width="1" stroke-linecap="square" stroke-linejoin="bevel" transform="matrix(1,0,0,1,0,0)"
font-family="Ubuntu" font-size="45.8333" font-weight="400" font-style="normal" 
>
</g>

<g fill="none" stroke="#000000" stroke-opacity="1" stroke-width="1" stroke-linecap="square" stroke-linejoin="bevel" transform="matrix(11.8081,0,0,11.8081,0,0)"
font-family="Ubuntu" font-size="45.8333" font-weight="400" font-style="normal" 
>
</g>

<g fill="#ffffff" fill-opacity="1" stroke="none" transform="matrix(0.999751,0,0,0.999751,0,0)"
font-family="Ubuntu" font-size="45.8333" font-weight="400" font-style="normal" 
>
<path vector-effect="none" fill-rule="evenodd" d="M-1,-1 L2481.31,-1 L2481.31,3508.87 L-1,3508.87 L-1,-1"/>
</g>

<g fill="none" stroke="#000000" stroke-opacity="1" stroke-width="1" stroke-linecap="square" stroke-linejoin="bevel" transform="matrix(11.8081,0,0,11.8081,0,0)"
font-family="Ubuntu" font-size="45.8333" font-weight="400" font-style="normal" 
>
</g>

<g fill="none" stroke="#000000" stroke-opacity="1" stroke-width="1" stroke-linecap="square" stroke-linejoin="bevel" transform="matrix(11.8081,0,0,11.8081,0,0)"
font-family="Ubuntu" font-size="45.8333" font-weight="400" font-style="normal" 
>
</g>

<g fill="none" stroke="#000000" stroke-opacity="1" stroke-width="1" stroke-linecap="square" stroke-linejoin="bevel" transform="matrix(11.8081,0,0,11.8081,0,0)"
font-family="Ubuntu" font-size="45.8333" font-weight="400" font-style="normal" 
>
</g>

<g fill="none" stroke="#000000" stroke-opacity="1" stroke-width="1" stroke-linecap="square" stroke-linejoin="bevel" transform="matrix(11.8081,0,0,11.8081,0,0)"
font-family="Ubuntu" font-size="45.8333" font-weight="400" font-style="normal" 
>
</g>

<g fill="#000000" fill-opacity="0" stroke="none" transform="matrix(0.999751,0,0,0.999751,0,0)"
font-family="Ubuntu" font-size="45.8333" font-weight="400" font-style="normal" 
>
<path vector-effect="non-scaling-stroke" fill-rule="evenodd" d="M0,0 L2528,0 L2528,3520 L0,3520 L0,0"/>
</g>

<g fill="#33a02c" fill-opacity="1" stroke="#000000" stroke-opacity="1" stroke-width="2.3622" stroke-linecap="square" stroke-linejoin="bevel" transform="matrix(0.999751,0,0,0.999751,0,0)"
font-family="Ubuntu" font-size="45.8333" font-weight="400" font-style="normal" 
>
<path vector-effect="none" fill-rule="evenodd" d="M1392.42,1075.11 L1410.14,1075.11 L1410.14,1092.82 L1392.42,1092.82 L1392.42,1075.11"/>
</g>

<g fill="#000000" fill-opacity="1" stroke="#000000" stroke-opacity="1" stroke-width="2.3622" stroke-linecap="square" stroke-linejoin="bevel" transform="matrix(0.999751,0,0,0.999751,0,0)"
font-family="Ubuntu" font-size="45.8333" font-weight="400" font-style="normal" 
>
<path vector-effect="none" fill-rule="evenodd" d="M1477.58,2294.67 L1495.3,2294.67 L1495.3,2312.39 L1477.58,2312.39 L1477.58,2294.67"/>
<path vector-effect="none" fill-rule="evenodd" d="M895.322,1170.75 L913.039,1170.75 L913.039,1188.47 L895.322,1188.47 L895.322,1170.75"/>
<path vector-effect="none" fill-rule="evenodd" d="M888.808,1188.17 L906.525,1188.17 L906.525,1205.89 L888.808,1205.89 L888.808,1188.17"/>
<path vector-effect="none" fill-rule="evenodd" d="M791.381,1476.3 L809.097,1476.3 L809.097,1494.02 L791.381,1494.02 L791.381,1476.3"/>
<path vector-effect="none" fill-rule="evenodd" d="M889.66,2129.15 L907.377,2129.15 L907.377,2146.87 L889.66,2146.87 L889.66,2129.15"/>
<path vector-effect="none" fill-rule="evenodd" d="M691.864,2380.67 L709.581,2380.67 L709.581,2398.39 L691.864,2398.39 L691.864,2380.67"/>
<path vector-effect="none" fill-rule="evenodd" d="M844.307,2112.47 L862.023,2112.47 L862.023,2130.19 L844.307,2130.19 L844.307,2112.47"/>
<path vector-effect="none" fill-rule="evenodd" d="M829.635,2671.81 L847.351,2671.81 L847.351,2689.52 L829.635,2689.52 L829.635,2671.81"/>
<path vector-effect="none" fill-rule="evenodd" d="M827.64,2666.96 L845.357,2666.96 L845.357,2684.68 L827.64,2684.68 L827.64,2666.96"/>
<path vector-effect="none" fill-rule="evenodd" d="M822.507,2687.31 L840.223,2687.31 L840.223,2705.02 L822.507,2705.02 L822.507,2687.31"/>
<path vector-effect="none" fill-rule="evenodd" d="M871.686,2990.78 L889.403,2990.78 L889.403,3008.5 L871.686,3008.5 L871.686,2990.78"/>
<path vector-effect="none" fill-rule="evenodd" d="M875.83,3007.59 L893.547,3007.59 L893.547,3025.3 L875.83,3025.3 L875.83,3007.59"/>
<path vector-effect="none" fill-rule="evenodd" d="M896.149,3036.87 L913.865,3036.87 L913.865,3054.59 L896.149,3054.59 L896.149,3036.87"/>
<path vector-effect="none" fill-rule="evenodd" d="M853.709,3094.37 L871.426,3094.37 L871.426,3112.09 L853.709,3112.09 L853.709,3094.37"/>
</g>

<g fill="#33a02c" fill-opacity="1" stroke="#000000" stroke-opacity="1" stroke-width="2.3622" stroke-linecap="square" stroke-linejoin="bevel" transform="matrix(0.999751,0,0,0.999751,0,0)"
font-family="Ubuntu" font-size="45.8333" font-weight="400" font-style="normal" 
>
<path vector-effect="none" fill-rule="evenodd" d="M874.265,1326 L891.982,1326 L891.982,1343.72 L874.265,1343.72 L874.265,1326"/>
</g>

<g fill="#000000" fill-opacity="1" stroke="#000000" stroke-opacity="1" stroke-width="2.3622" stroke-linecap="square" stroke-linejoin="bevel" transform="matrix(0.999751,0,0,0.999751,0,0)"
font-family="Ubuntu" font-size="45.8333" font-weight="400" font-style="normal" 
>
<path vector-effect="none" fill-rule="evenodd" d="M973.974,1295.85 L991.691,1295.85 L991.691,1313.57 L973.974,1313.57 L973.974,1295.85"/>
<path vector-effect="none" fill-rule="evenodd" d="M767.893,2010.88 L785.609,2010.88 L785.609,2028.59 L767.893,2028.59 L767.893,2010.88"/>
<path vector-effect="none" fill-rule="evenodd" d="M745.989,1857.91 L763.705,1857.91 L763.705,1875.63 L745.989,1875.63 L745.989,1857.91"/>
<path vector-effect="none" fill-rule="evenodd" d="M893.934,1061.26 L911.651,1061.26 L911.651,1078.98 L893.934,1078.98 L893.934,1061.26"/>
<path vector-effect="none" fill-rule="evenodd" d="M896.23,1027.15 L913.947,1027.15 L913.947,1044.86 L896.23,1044.86 L896.23,1027.15"/>
<path vector-effect="none" fill-rule="evenodd" d="M773.331,937.441 L791.048,937.441 L791.048,955.158 L773.331,955.158 L773.331,937.441"/>
<path vector-effect="none" fill-rule="evenodd" d="M753.794,937.073 L771.51,937.073 L771.51,954.789 L753.794,954.789 L753.794,937.073"/>
<path vector-effect="none" fill-rule="evenodd" d="M673.672,699.211 L691.388,699.211 L691.388,716.928 L673.672,716.928 L673.672,699.211"/>
<path vector-effect="none" fill-rule="evenodd" d="M854.135,1824.31 L871.851,1824.31 L871.851,1842.03 L854.135,1842.03 L854.135,1824.31"/>
<path vector-effect="none" fill-rule="evenodd" d="M859.457,1801.76 L877.174,1801.76 L877.174,1819.48 L859.457,1819.48 L859.457,1801.76"/>
<path vector-effect="none" fill-rule="evenodd" d="M897.502,1750.94 L915.218,1750.94 L915.218,1768.66 L897.502,1768.66 L897.502,1750.94"/>
<path vector-effect="none" fill-rule="evenodd" d="M873.569,1820.83 L891.285,1820.83 L891.285,1838.55 L873.569,1838.55 L873.569,1820.83"/>
<path vector-effect="none" fill-rule="evenodd" d="M822.118,1740.14 L839.835,1740.14 L839.835,1757.85 L822.118,1757.85 L822.118,1740.14"/>
<path vector-effect="none" fill-rule="evenodd" d="M717.728,2117.68 L735.444,2117.68 L735.444,2135.4 L717.728,2135.4 L717.728,2117.68"/>
<path vector-effect="none" fill-rule="evenodd" d="M794.897,2192.83 L812.614,2192.83 L812.614,2210.55 L794.897,2210.55 L794.897,2192.83"/>
<path vector-effect="none" fill-rule="evenodd" d="M773.261,2203.65 L790.978,2203.65 L790.978,2221.37 L773.261,2221.37 L773.261,2203.65"/>
<path vector-effect="none" fill-rule="evenodd" d="M734.999,2197.97 L752.716,2197.97 L752.716,2215.69 L734.999,2215.69 L734.999,2197.97"/>
<path vector-effect="none" fill-rule="evenodd" d="M821.851,2097.08 L839.568,2097.08 L839.568,2114.79 L821.851,2114.79 L821.851,2097.08"/>
<path vector-effect="none" fill-rule="evenodd" d="M843.767,1995.49 L861.484,1995.49 L861.484,2013.21 L843.767,2013.21 L843.767,1995.49"/>
<path vector-effect="none" fill-rule="evenodd" d="M777.249,1619.2 L794.966,1619.2 L794.966,1636.92 L777.249,1636.92 L777.249,1619.2"/>
<path vector-effect="none" fill-rule="evenodd" d="M875.205,2993.49 L892.921,2993.49 L892.921,3011.21 L875.205,3011.21 L875.205,2993.49"/>
<path vector-effect="none" fill-rule="evenodd" d="M874.778,3021.23 L892.495,3021.23 L892.495,3038.95 L874.778,3038.95 L874.778,3021.23"/>
<path vector-effect="none" fill-rule="evenodd" d="M839.094,3015.42 L856.811,3015.42 L856.811,3033.14 L839.094,3033.14 L839.094,3015.42"/>
<path vector-effect="none" fill-rule="evenodd" d="M419.723,498.787 L437.439,498.787 L437.439,516.504 L419.723,516.504 L419.723,498.787"/>
<path vector-effect="none" fill-rule="evenodd" d="M782.019,2817.63 L799.736,2817.63 L799.736,2835.34 L782.019,2835.34 L782.019,2817.63"/>
<path vector-effect="none" fill-rule="evenodd" d="M741.64,2616.63 L759.357,2616.63 L759.357,2634.35 L741.64,2634.35 L741.64,2616.63"/>
<path vector-effect="none" fill-rule="evenodd" d="M725.898,2419.11 L743.614,2419.11 L743.614,2436.83 L725.898,2436.83 L725.898,2419.11"/>
<path vector-effect="none" fill-rule="evenodd" d="M589.652,924.076 L607.368,924.076 L607.368,941.792 L589.652,941.792 L589.652,924.076"/>
</g>

<g fill="#33a02c" fill-opacity="1" stroke="#000000" stroke-opacity="1" stroke-width="2.3622" stroke-linecap="square" stroke-linejoin="bevel" transform="matrix(0.999751,0,0,0.999751,0,0)"
font-family="Ubuntu" font-size="45.8333" font-weight="400" font-style="normal" 
>
<path vector-effect="none" fill-rule="evenodd" d="M643.35,867.078 L661.067,867.078 L661.067,884.795 L643.35,884.795 L643.35,867.078"/>
</g>

<g fill="#000000" fill-opacity="1" stroke="#000000" stroke-opacity="1" stroke-width="2.3622" stroke-linecap="square" stroke-linejoin="bevel" transform="matrix(0.999751,0,0,0.999751,0,0)"
font-family="Ubuntu" font-size="45.8333" font-weight="400" font-style="normal" 
>
<path vector-effect="none" fill-rule="evenodd" d="M881.605,1135.12 L899.322,1135.12 L899.322,1152.83 L881.605,1152.83 L881.605,1135.12"/>
<path vector-effect="none" fill-rule="evenodd" d="M827.07,2660.41 L844.787,2660.41 L844.787,2678.13 L827.07,2678.13 L827.07,2660.41"/>
<path vector-effect="none" fill-rule="evenodd" d="M809.286,2694.2 L827.002,2694.2 L827.002,2711.91 L809.286,2711.91 L809.286,2694.2"/>
<path vector-effect="none" fill-rule="evenodd" d="M872.978,3056.4 L890.695,3056.4 L890.695,3074.12 L872.978,3074.12 L872.978,3056.4"/>
</g>

<g fill="#33a02c" fill-opacity="1" stroke="#000000" stroke-opacity="1" stroke-width="2.3622" stroke-linecap="square" stroke-linejoin="bevel" transform="matrix(0.999751,0,0,0.999751,0,0)"
font-family="Ubuntu" font-size="45.8333" font-weight="400" font-style="normal" 
>
<path vector-effect="none" fill-rule="evenodd" d="M590.821,738.014 L608.538,738.014 L608.538,755.73 L590.821,755.73 L590.821,738.014"/>
<path vector-effect="none" fill-rule="evenodd" d="M796.578,1684.03 L814.295,1684.03 L814.295,1701.74 L796.578,1701.74 L796.578,1684.03"/>
</g>

<g fill="#000000" fill-opacity="1" stroke="#000000" stroke-opacity="1" stroke-width="2.3622" stroke-linecap="square" stroke-linejoin="bevel" transform="matrix(0.999751,0,0,0.999751,0,0)"
font-family="Ubuntu" font-size="45.8333" font-weight="400" font-style="normal" 
>
<path vector-effect="none" fill-rule="evenodd" d="M735.883,933.315 L753.6,933.315 L753.6,951.031 L735.883,951.031 L735.883,933.315"/>
<path vector-effect="none" fill-rule="evenodd" d="M675.554,726.507 L693.271,726.507 L693.271,744.224 L675.554,744.224 L675.554,726.507"/>
<path vector-effect="none" fill-rule="evenodd" d="M768.205,2465.59 L785.922,2465.59 L785.922,2483.3 L768.205,2483.3 L768.205,2465.59"/>
<path vector-effect="none" fill-rule="evenodd" d="M643.437,659.251 L661.154,659.251 L661.154,676.967 L643.437,676.967 L643.437,659.251"/>
<path vector-effect="none" fill-rule="evenodd" d="M628.927,656.905 L646.644,656.905 L646.644,674.622 L628.927,674.622 L628.927,656.905"/>
<path vector-effect="none" fill-rule="evenodd" d="M388.112,518.47 L405.828,518.47 L405.828,536.186 L388.112,536.186 L388.112,518.47"/>
<path vector-effect="none" fill-rule="evenodd" d="M374.812,529.049 L392.529,529.049 L392.529,546.766 L374.812,546.766 L374.812,529.049"/>
</g>

<g fill="#33a02c" fill-opacity="1" stroke="#000000" stroke-opacity="1" stroke-width="2.3622" stroke-linecap="square" stroke-linejoin="bevel" transform="matrix(0.999751,0,0,0.999751,0,0)"
font-family="Ubuntu" font-size="45.8333" font-weight="400" font-style="normal" 
>
<path vector-effect="none" fill-rule="evenodd" d="M547.387,752.526 L565.103,752.526 L565.103,770.242 L547.387,770.242 L547.387,752.526"/>
</g>

<g fill="#000000" fill-opacity="1" stroke="#000000" stroke-opacity="1" stroke-width="2.3622" stroke-linecap="square" stroke-linejoin="bevel" transform="matrix(0.999751,0,0,0.999751,0,0)"
font-family="Ubuntu" font-size="45.8333" font-weight="400" font-style="normal" 
>
<path vector-effect="none" fill-rule="evenodd" d="M1397.11,1405.87 L1414.83,1405.87 L1414.83,1423.59 L1397.11,1423.59 L1397.11,1405.87"/>
<path vector-effect="none" fill-rule="evenodd" d="M1012.87,2143.58 L1030.59,2143.58 L1030.59,2161.3 L1012.87,2161.3 L1012.87,2143.58"/>
<path vector-effect="none" fill-rule="evenodd" d="M1594.89,2747.9 L1612.6,2747.9 L1612.6,2765.62 L1594.89,2765.62 L1594.89,2747.9"/>
<path vector-effect="none" fill-rule="evenodd" d="M1545.92,1989.57 L1563.63,1989.57 L1563.63,2007.28 L1545.92,2007.28 L1545.92,1989.57"/>
<path vector-effect="none" fill-rule="evenodd" d="M1492.61,2098.04 L1510.32,2098.04 L1510.32,2115.76 L1492.61,2115.76 L1492.61,2098.04"/>
<path vector-effect="none" fill-rule="evenodd" d="M1692.97,2109.54 L1710.69,2109.54 L1710.69,2127.26 L1692.97,2127.26 L1692.97,2109.54"/>
<path vector-effect="none" fill-rule="evenodd" d="M666.305,698.726 L684.021,698.726 L684.021,716.442 L666.305,716.442 L666.305,698.726"/>
<path vector-effect="none" fill-rule="evenodd" d="M634.847,719.889 L652.563,719.889 L652.563,737.606 L634.847,737.606 L634.847,719.889"/>
<path vector-effect="none" fill-rule="evenodd" d="M742.493,736.729 L760.21,736.729 L760.21,754.445 L742.493,754.445 L742.493,736.729"/>
<path vector-effect="none" fill-rule="evenodd" d="M900.974,1972.35 L918.69,1972.35 L918.69,1990.07 L900.974,1990.07 L900.974,1972.35"/>
<path vector-effect="none" fill-rule="evenodd" d="M880.553,1965.87 L898.269,1965.87 L898.269,1983.59 L880.553,1983.59 L880.553,1965.87"/>
<path vector-effect="none" fill-rule="evenodd" d="M1382.83,2237.08 L1400.54,2237.08 L1400.54,2254.79 L1382.83,2254.79 L1382.83,2237.08"/>
<path vector-effect="none" fill-rule="evenodd" d="M1687.8,2463.93 L1705.52,2463.93 L1705.52,2481.65 L1687.8,2481.65 L1687.8,2463.93"/>
<path vector-effect="none" fill-rule="evenodd" d="M1679.62,2542.59 L1697.34,2542.59 L1697.34,2560.3 L1679.62,2560.3 L1679.62,2542.59"/>
</g>

<g fill="#33a02c" fill-opacity="1" stroke="#000000" stroke-opacity="1" stroke-width="2.3622" stroke-linecap="square" stroke-linejoin="bevel" transform="matrix(0.999751,0,0,0.999751,0,0)"
font-family="Ubuntu" font-size="45.8333" font-weight="400" font-style="normal" 
>
<path vector-effect="none" fill-rule="evenodd" d="M1141.12,923.194 L1158.84,923.194 L1158.84,940.911 L1141.12,940.911 L1141.12,923.194"/>
</g>

<g fill="#e465ad" fill-opacity="1" stroke="#000000" stroke-opacity="1" stroke-width="2.3622" stroke-linecap="square" stroke-linejoin="bevel" transform="matrix(0.999751,0,0,0.999751,0,0)"
font-family="Ubuntu" font-size="45.8333" font-weight="400" font-style="normal" 
>
<path vector-effect="none" fill-rule="evenodd" d="M1122.1,2949.27 L1139.82,2949.27 L1139.82,2966.99 L1122.1,2966.99 L1122.1,2949.27"/>
<path vector-effect="none" fill-rule="evenodd" d="M766.873,2043.11 L784.589,2043.11 L784.589,2060.82 L766.873,2060.82 L766.873,2043.11"/>
<path vector-effect="none" fill-rule="evenodd" d="M817.599,1944.48 L835.316,1944.48 L835.316,1962.19 L817.599,1962.19 L817.599,1944.48"/>
<path vector-effect="none" fill-rule="evenodd" d="M803.339,1944.07 L821.055,1944.07 L821.055,1961.79 L803.339,1961.79 L803.339,1944.07"/>
<path vector-effect="none" fill-rule="evenodd" d="M931.03,1663.21 L948.747,1663.21 L948.747,1680.93 L931.03,1680.93 L931.03,1663.21"/>
<path vector-effect="none" fill-rule="evenodd" d="M722.476,2049.21 L740.193,2049.21 L740.193,2066.92 L722.476,2066.92 L722.476,2049.21"/>
<path vector-effect="none" fill-rule="evenodd" d="M1032.01,946.597 L1049.73,946.597 L1049.73,964.313 L1032.01,964.313 L1032.01,946.597"/>
<path vector-effect="none" fill-rule="evenodd" d="M826.338,1111.67 L844.054,1111.67 L844.054,1129.39 L826.338,1129.39 L826.338,1111.67"/>
<path vector-effect="none" fill-rule="evenodd" d="M877.17,1141.96 L894.887,1141.96 L894.887,1159.67 L877.17,1159.67 L877.17,1141.96"/>
<path vector-effect="none" fill-rule="evenodd" d="M625.045,659.635 L642.761,659.635 L642.761,677.352 L625.045,677.352 L625.045,659.635"/>
<path vector-effect="none" fill-rule="evenodd" d="M762.797,359.305 L780.513,359.305 L780.513,377.021 L762.797,377.021 L762.797,359.305"/>
<path vector-effect="none" fill-rule="evenodd" d="M481.158,758.444 L498.874,758.444 L498.874,776.16 L481.158,776.16 L481.158,758.444"/>
<path vector-effect="none" fill-rule="evenodd" d="M773.069,362.45 L790.786,362.45 L790.786,380.166 L773.069,380.166 L773.069,362.45"/>
<path vector-effect="none" fill-rule="evenodd" d="M613.36,680.778 L631.076,680.778 L631.076,698.494 L613.36,698.494 L613.36,680.778"/>
<path vector-effect="none" fill-rule="evenodd" d="M582.274,696.806 L599.99,696.806 L599.99,714.523 L582.274,714.523 L582.274,696.806"/>
<path vector-effect="none" fill-rule="evenodd" d="M649.501,705.628 L667.218,705.628 L667.218,723.344 L649.501,723.344 L649.501,705.628"/>
<path vector-effect="none" fill-rule="evenodd" d="M597.271,709.116 L614.988,709.116 L614.988,726.833 L597.271,726.833 L597.271,709.116"/>
<path vector-effect="none" fill-rule="evenodd" d="M600.891,758.524 L618.608,758.524 L618.608,776.24 L600.891,776.24 L600.891,758.524"/>
<path vector-effect="none" fill-rule="evenodd" d="M636.44,742.369 L654.157,742.369 L654.157,760.086 L636.44,760.086 L636.44,742.369"/>
<path vector-effect="none" fill-rule="evenodd" d="M636.845,736.902 L654.561,736.902 L654.561,754.618 L636.845,754.618 L636.845,736.902"/>
<path vector-effect="none" fill-rule="evenodd" d="M672.705,667.388 L690.422,667.388 L690.422,685.105 L672.705,685.105 L672.705,667.388"/>
</g>

<g fill="#33a02c" fill-opacity="1" stroke="#000000" stroke-opacity="1" stroke-width="2.3622" stroke-linecap="square" stroke-linejoin="bevel" transform="matrix(0.999751,0,0,0.999751,0,0)"
font-family="Ubuntu" font-size="45.8333" font-weight="400" font-style="normal" 
>
<path vector-effect="none" fill-rule="evenodd" d="M751.535,1072.86 L769.252,1072.86 L769.252,1090.58 L751.535,1090.58 L751.535,1072.86"/>
</g>

<g fill="#000000" fill-opacity="1" stroke="#000000" stroke-opacity="1" stroke-width="2.3622" stroke-linecap="square" stroke-linejoin="bevel" transform="matrix(0.999751,0,0,0.999751,0,0)"
font-family="Ubuntu" font-size="45.8333" font-weight="400" font-style="normal" 
>
<path vector-effect="none" fill-rule="evenodd" d="M744.632,1126.82 L762.349,1126.82 L762.349,1144.54 L744.632,1144.54 L744.632,1126.82"/>
<path vector-effect="none" fill-rule="evenodd" d="M785.991,1491.05 L803.707,1491.05 L803.707,1508.77 L785.991,1508.77 L785.991,1491.05"/>
<path vector-effect="none" fill-rule="evenodd" d="M892.073,2105.15 L909.789,2105.15 L909.789,2122.87 L892.073,2122.87 L892.073,2105.15"/>
<path vector-effect="none" fill-rule="evenodd" d="M718.34,2448.98 L736.057,2448.98 L736.057,2466.69 L718.34,2466.69 L718.34,2448.98"/>
<path vector-effect="none" fill-rule="evenodd" d="M680.762,2349.34 L698.479,2349.34 L698.479,2367.06 L680.762,2367.06 L680.762,2349.34"/>
<path vector-effect="none" fill-rule="evenodd" d="M846.879,2063.06 L864.595,2063.06 L864.595,2080.78 L846.879,2080.78 L846.879,2063.06"/>
<path vector-effect="none" fill-rule="evenodd" d="M794.73,2662.81 L812.447,2662.81 L812.447,2680.53 L794.73,2680.53 L794.73,2662.81"/>
<path vector-effect="none" fill-rule="evenodd" d="M871.706,3023.54 L889.422,3023.54 L889.422,3041.25 L871.706,3041.25 L871.706,3023.54"/>
<path vector-effect="none" fill-rule="evenodd" d="M818.035,2982.52 L835.752,2982.52 L835.752,3000.23 L818.035,3000.23 L818.035,2982.52"/>
</g>

<g fill="#33a02c" fill-opacity="1" stroke="#000000" stroke-opacity="1" stroke-width="2.3622" stroke-linecap="square" stroke-linejoin="bevel" transform="matrix(0.999751,0,0,0.999751,0,0)"
font-family="Ubuntu" font-size="45.8333" font-weight="400" font-style="normal" 
>
<path vector-effect="none" fill-rule="evenodd" d="M743.356,1067.62 L761.073,1067.62 L761.073,1085.33 L743.356,1085.33 L743.356,1067.62"/>
</g>

<g fill="#000000" fill-opacity="1" stroke="#000000" stroke-opacity="1" stroke-width="2.3622" stroke-linecap="square" stroke-linejoin="bevel" transform="matrix(0.999751,0,0,0.999751,0,0)"
font-family="Ubuntu" font-size="45.8333" font-weight="400" font-style="normal" 
>
<path vector-effect="none" fill-rule="evenodd" d="M759.84,1224.73 L777.557,1224.73 L777.557,1242.45 L759.84,1242.45 L759.84,1224.73"/>
</g>

<g fill="#33a02c" fill-opacity="1" stroke="#000000" stroke-opacity="1" stroke-width="2.3622" stroke-linecap="square" stroke-linejoin="bevel" transform="matrix(0.999751,0,0,0.999751,0,0)"
font-family="Ubuntu" font-size="45.8333" font-weight="400" font-style="normal" 
>
<path vector-effect="none" fill-rule="evenodd" d="M653.813,867.383 L671.53,867.383 L671.53,885.099 L653.813,885.099 L653.813,867.383"/>
</g>

<g fill="#000000" fill-opacity="1" stroke="#000000" stroke-opacity="1" stroke-width="2.3622" stroke-linecap="square" stroke-linejoin="bevel" transform="matrix(0.999751,0,0,0.999751,0,0)"
font-family="Ubuntu" font-size="45.8333" font-weight="400" font-style="normal" 
>
<path vector-effect="none" fill-rule="evenodd" d="M898.282,1051.16 L915.999,1051.16 L915.999,1068.87 L898.282,1068.87 L898.282,1051.16"/>
<path vector-effect="none" fill-rule="evenodd" d="M544.271,782.242 L561.987,782.242 L561.987,799.959 L544.271,799.959 L544.271,782.242"/>
<path vector-effect="none" fill-rule="evenodd" d="M592.994,887.369 L610.71,887.369 L610.71,905.086 L592.994,905.086 L592.994,887.369"/>
<path vector-effect="none" fill-rule="evenodd" d="M616.591,949.668 L634.308,949.668 L634.308,967.385 L616.591,967.385 L616.591,949.668"/>
<path vector-effect="none" fill-rule="evenodd" d="M764.173,2077.29 L781.89,2077.29 L781.89,2095.01 L764.173,2095.01 L764.173,2077.29"/>
<path vector-effect="none" fill-rule="evenodd" d="M395.222,506.187 L412.938,506.187 L412.938,523.903 L395.222,523.903 L395.222,506.187"/>
</g>

<g fill="#33a02c" fill-opacity="1" stroke="#000000" stroke-opacity="1" stroke-width="2.3622" stroke-linecap="square" stroke-linejoin="bevel" transform="matrix(0.999751,0,0,0.999751,0,0)"
font-family="Ubuntu" font-size="45.8333" font-weight="400" font-style="normal" 
>
<path vector-effect="none" fill-rule="evenodd" d="M479.525,689.842 L497.242,689.842 L497.242,707.558 L479.525,707.558 L479.525,689.842"/>
<path vector-effect="none" fill-rule="evenodd" d="M625.096,871.161 L642.812,871.161 L642.812,888.877 L625.096,888.877 L625.096,871.161"/>
</g>

<g fill="#000000" fill-opacity="1" stroke="#000000" stroke-opacity="1" stroke-width="2.3622" stroke-linecap="square" stroke-linejoin="bevel" transform="matrix(0.999751,0,0,0.999751,0,0)"
font-family="Ubuntu" font-size="45.8333" font-weight="400" font-style="normal" 
>
<path vector-effect="none" fill-rule="evenodd" d="M755.211,1190.91 L772.927,1190.91 L772.927,1208.63 L755.211,1208.63 L755.211,1190.91"/>
<path vector-effect="none" fill-rule="evenodd" d="M685.323,1197.05 L703.04,1197.05 L703.04,1214.77 L685.323,1214.77 L685.323,1197.05"/>
<path vector-effect="none" fill-rule="evenodd" d="M729.627,2459.5 L747.344,2459.5 L747.344,2477.22 L729.627,2477.22 L729.627,2459.5"/>
<path vector-effect="none" fill-rule="evenodd" d="M774.156,2685.77 L791.873,2685.77 L791.873,2703.49 L774.156,2703.49 L774.156,2685.77"/>
<path vector-effect="none" fill-rule="evenodd" d="M781.881,2699.22 L799.598,2699.22 L799.598,2716.93 L781.881,2716.93 L781.881,2699.22"/>
<path vector-effect="none" fill-rule="evenodd" d="M726.199,2536.02 L743.916,2536.02 L743.916,2553.74 L726.199,2553.74 L726.199,2536.02"/>
<path vector-effect="none" fill-rule="evenodd" d="M763.009,1106.47 L780.726,1106.47 L780.726,1124.19 L763.009,1124.19 L763.009,1106.47"/>
<path vector-effect="none" fill-rule="evenodd" d="M753.006,1118.89 L770.723,1118.89 L770.723,1136.61 L753.006,1136.61 L753.006,1118.89"/>
<path vector-effect="none" fill-rule="evenodd" d="M740.363,1135.81 L758.079,1135.81 L758.079,1153.53 L740.363,1153.53 L740.363,1135.81"/>
<path vector-effect="none" fill-rule="evenodd" d="M791.085,1559.06 L808.802,1559.06 L808.802,1576.78 L791.085,1576.78 L791.085,1559.06"/>
<path vector-effect="none" fill-rule="evenodd" d="M800.711,1532.22 L818.427,1532.22 L818.427,1549.94 L800.711,1549.94 L800.711,1532.22"/>
<path vector-effect="none" fill-rule="evenodd" d="M684.879,1220.7 L702.596,1220.7 L702.596,1238.42 L684.879,1238.42 L684.879,1220.7"/>
<path vector-effect="none" fill-rule="evenodd" d="M706.742,1252.48 L724.459,1252.48 L724.459,1270.2 L706.742,1270.2 L706.742,1252.48"/>
<path vector-effect="none" fill-rule="evenodd" d="M711.019,1296.09 L728.736,1296.09 L728.736,1313.8 L711.019,1313.8 L711.019,1296.09"/>
<path vector-effect="none" fill-rule="evenodd" d="M740.22,1336 L757.937,1336 L757.937,1353.72 L740.22,1353.72 L740.22,1336"/>
<path vector-effect="none" fill-rule="evenodd" d="M695.197,2426.2 L712.913,2426.2 L712.913,2443.91 L695.197,2443.91 L695.197,2426.2"/>
<path vector-effect="none" fill-rule="evenodd" d="M677.293,2313.08 L695.009,2313.08 L695.009,2330.8 L677.293,2330.8 L677.293,2313.08"/>
<path vector-effect="none" fill-rule="evenodd" d="M847.331,2700.36 L865.047,2700.36 L865.047,2718.07 L847.331,2718.07 L847.331,2700.36"/>
<path vector-effect="none" fill-rule="evenodd" d="M823.581,2707.26 L841.298,2707.26 L841.298,2724.98 L823.581,2724.98 L823.581,2707.26"/>
<path vector-effect="none" fill-rule="evenodd" d="M826.847,2695.47 L844.563,2695.47 L844.563,2713.19 L826.847,2713.19 L826.847,2695.47"/>
<path vector-effect="none" fill-rule="evenodd" d="M833.82,3009.57 L851.537,3009.57 L851.537,3027.29 L833.82,3027.29 L833.82,3009.57"/>
<path vector-effect="none" fill-rule="evenodd" d="M549.388,766.505 L567.105,766.505 L567.105,784.222 L549.388,784.222 L549.388,766.505"/>
</g>

<g fill="#33a02c" fill-opacity="1" stroke="#000000" stroke-opacity="1" stroke-width="2.3622" stroke-linecap="square" stroke-linejoin="bevel" transform="matrix(0.999751,0,0,0.999751,0,0)"
font-family="Ubuntu" font-size="45.8333" font-weight="400" font-style="normal" 
>
<path vector-effect="none" fill-rule="evenodd" d="M797.101,1733.67 L814.818,1733.67 L814.818,1751.39 L797.101,1751.39 L797.101,1733.67"/>
</g>

<g fill="#000000" fill-opacity="1" stroke="#000000" stroke-opacity="1" stroke-width="2.3622" stroke-linecap="square" stroke-linejoin="bevel" transform="matrix(0.999751,0,0,0.999751,0,0)"
font-family="Ubuntu" font-size="45.8333" font-weight="400" font-style="normal" 
>
<path vector-effect="none" fill-rule="evenodd" d="M692.486,2145.95 L710.202,2145.95 L710.202,2163.67 L692.486,2163.67 L692.486,2145.95"/>
<path vector-effect="none" fill-rule="evenodd" d="M680.947,2151 L698.663,2151 L698.663,2168.72 L680.947,2168.72 L680.947,2151"/>
<path vector-effect="none" fill-rule="evenodd" d="M675.898,2157.49 L693.615,2157.49 L693.615,2175.21 L675.898,2175.21 L675.898,2157.49"/>
<path vector-effect="none" fill-rule="evenodd" d="M673.013,2174.08 L690.73,2174.08 L690.73,2191.8 L673.013,2191.8 L673.013,2174.08"/>
<path vector-effect="none" fill-rule="evenodd" d="M732.124,2121.32 L749.84,2121.32 L749.84,2139.03 L732.124,2139.03 L732.124,2121.32"/>
<path vector-effect="none" fill-rule="evenodd" d="M678.024,2223.93 L695.741,2223.93 L695.741,2241.65 L678.024,2241.65 L678.024,2223.93"/>
<path vector-effect="none" fill-rule="evenodd" d="M675.861,2284.52 L693.578,2284.52 L693.578,2302.23 L675.861,2302.23 L675.861,2284.52"/>
<path vector-effect="none" fill-rule="evenodd" d="M705.43,2212.39 L723.147,2212.39 L723.147,2230.11 L705.43,2230.11 L705.43,2212.39"/>
<path vector-effect="none" fill-rule="evenodd" d="M722.739,2222.49 L740.456,2222.49 L740.456,2240.21 L722.739,2240.21 L722.739,2222.49"/>
<path vector-effect="none" fill-rule="evenodd" d="M749.814,2505.79 L767.531,2505.79 L767.531,2523.51 L749.814,2523.51 L749.814,2505.79"/>
<path vector-effect="none" fill-rule="evenodd" d="M724.339,2871.95 L742.056,2871.95 L742.056,2889.66 L724.339,2889.66 L724.339,2871.95"/>
</g>

<g fill="#33a02c" fill-opacity="1" stroke="#000000" stroke-opacity="1" stroke-width="2.3622" stroke-linecap="square" stroke-linejoin="bevel" transform="matrix(0.999751,0,0,0.999751,0,0)"
font-family="Ubuntu" font-size="45.8333" font-weight="400" font-style="normal" 
>
<path vector-effect="none" fill-rule="evenodd" d="M683.902,1758.23 L701.618,1758.23 L701.618,1775.95 L683.902,1775.95 L683.902,1758.23"/>
<path vector-effect="none" fill-rule="evenodd" d="M675.569,1213.14 L693.286,1213.14 L693.286,1230.85 L675.569,1230.85 L675.569,1213.14"/>
<path vector-effect="none" fill-rule="evenodd" d="M700.656,1366.29 L718.373,1366.29 L718.373,1384.01 L700.656,1384.01 L700.656,1366.29"/>
</g>

<g fill="#000000" fill-opacity="1" stroke="#000000" stroke-opacity="1" stroke-width="2.3622" stroke-linecap="square" stroke-linejoin="bevel" transform="matrix(0.999751,0,0,0.999751,0,0)"
font-family="Ubuntu" font-size="45.8333" font-weight="400" font-style="normal" 
>
<path vector-effect="none" fill-rule="evenodd" d="M629.015,1089.24 L646.732,1089.24 L646.732,1106.96 L629.015,1106.96 L629.015,1089.24"/>
</g>

<g fill="#33a02c" fill-opacity="1" stroke="#000000" stroke-opacity="1" stroke-width="2.3622" stroke-linecap="square" stroke-linejoin="bevel" transform="matrix(0.999751,0,0,0.999751,0,0)"
font-family="Ubuntu" font-size="45.8333" font-weight="400" font-style="normal" 
>
<path vector-effect="none" fill-rule="evenodd" d="M515.876,777.938 L533.592,777.938 L533.592,795.655 L515.876,795.655 L515.876,777.938"/>
</g>

<g fill="#000000" fill-opacity="1" stroke="#000000" stroke-opacity="1" stroke-width="2.3622" stroke-linecap="square" stroke-linejoin="bevel" transform="matrix(0.999751,0,0,0.999751,0,0)"
font-family="Ubuntu" font-size="45.8333" font-weight="400" font-style="normal" 
>
<path vector-effect="none" fill-rule="evenodd" d="M772.277,2780.38 L789.994,2780.38 L789.994,2798.1 L772.277,2798.1 L772.277,2780.38"/>
<path vector-effect="none" fill-rule="evenodd" d="M769.412,2813.04 L787.129,2813.04 L787.129,2830.76 L769.412,2830.76 L769.412,2813.04"/>
<path vector-effect="none" fill-rule="evenodd" d="M765.816,2840.88 L783.532,2840.88 L783.532,2858.6 L765.816,2858.6 L765.816,2840.88"/>
<path vector-effect="none" fill-rule="evenodd" d="M694.718,2525.16 L712.434,2525.16 L712.434,2542.88 L694.718,2542.88 L694.718,2525.16"/>
<path vector-effect="none" fill-rule="evenodd" d="M792.914,1576.1 L810.63,1576.1 L810.63,1593.82 L792.914,1593.82 L792.914,1576.1"/>
<path vector-effect="none" fill-rule="evenodd" d="M325.4,438.08 L343.117,438.08 L343.117,455.796 L325.4,455.796 L325.4,438.08"/>
<path vector-effect="none" fill-rule="evenodd" d="M872.531,3039.76 L890.247,3039.76 L890.247,3057.48 L872.531,3057.48 L872.531,3039.76"/>
<path vector-effect="none" fill-rule="evenodd" d="M863.075,3120.04 L880.791,3120.04 L880.791,3137.76 L863.075,3137.76 L863.075,3120.04"/>
<path vector-effect="none" fill-rule="evenodd" d="M625.527,828.321 L643.243,828.321 L643.243,846.037 L625.527,846.037 L625.527,828.321"/>
<path vector-effect="none" fill-rule="evenodd" d="M745.405,882.744 L763.122,882.744 L763.122,900.46 L745.405,900.46 L745.405,882.744"/>
<path vector-effect="none" fill-rule="evenodd" d="M942.332,1974.21 L960.049,1974.21 L960.049,1991.93 L942.332,1991.93 L942.332,1974.21"/>
<path vector-effect="none" fill-rule="evenodd" d="M825.251,1763.33 L842.968,1763.33 L842.968,1781.04 L825.251,1781.04 L825.251,1763.33"/>
<path vector-effect="none" fill-rule="evenodd" d="M758.872,2515.77 L776.589,2515.77 L776.589,2533.48 L758.872,2533.48 L758.872,2515.77"/>
</g>

<g fill="#33a02c" fill-opacity="1" stroke="#000000" stroke-opacity="1" stroke-width="2.3622" stroke-linecap="square" stroke-linejoin="bevel" transform="matrix(0.999751,0,0,0.999751,0,0)"
font-family="Ubuntu" font-size="45.8333" font-weight="400" font-style="normal" 
>
<path vector-effect="none" fill-rule="evenodd" d="M644.541,1055.82 L662.258,1055.82 L662.258,1073.54 L644.541,1073.54 L644.541,1055.82"/>
</g>

<g fill="#000000" fill-opacity="1" stroke="#000000" stroke-opacity="1" stroke-width="2.3622" stroke-linecap="square" stroke-linejoin="bevel" transform="matrix(0.999751,0,0,0.999751,0,0)"
font-family="Ubuntu" font-size="45.8333" font-weight="400" font-style="normal" 
>
<path vector-effect="none" fill-rule="evenodd" d="M874.763,3012.53 L892.48,3012.53 L892.48,3030.25 L874.763,3030.25 L874.763,3012.53"/>
<path vector-effect="none" fill-rule="evenodd" d="M301.898,442.856 L319.615,442.856 L319.615,460.573 L301.898,460.573 L301.898,442.856"/>
<path vector-effect="none" fill-rule="evenodd" d="M1413.77,1251.99 L1431.48,1251.99 L1431.48,1269.7 L1413.77,1269.7 L1413.77,1251.99"/>
</g>

<g fill="#33a02c" fill-opacity="1" stroke="#000000" stroke-opacity="1" stroke-width="2.3622" stroke-linecap="square" stroke-linejoin="bevel" transform="matrix(0.999751,0,0,0.999751,0,0)"
font-family="Ubuntu" font-size="45.8333" font-weight="400" font-style="normal" 
>
<path vector-effect="none" fill-rule="evenodd" d="M506.589,684.079 L524.305,684.079 L524.305,701.796 L506.589,701.796 L506.589,684.079"/>
</g>

<g fill="#000000" fill-opacity="1" stroke="#000000" stroke-opacity="1" stroke-width="2.3622" stroke-linecap="square" stroke-linejoin="bevel" transform="matrix(0.999751,0,0,0.999751,0,0)"
font-family="Ubuntu" font-size="45.8333" font-weight="400" font-style="normal" 
>
<path vector-effect="none" fill-rule="evenodd" d="M711.125,879.407 L728.841,879.407 L728.841,897.124 L711.125,897.124 L711.125,879.407"/>
<path vector-effect="none" fill-rule="evenodd" d="M708.738,737.649 L726.454,737.649 L726.454,755.366 L708.738,755.366 L708.738,737.649"/>
<path vector-effect="none" fill-rule="evenodd" d="M885.033,1730.68 L902.749,1730.68 L902.749,1748.4 L885.033,1748.4 L885.033,1730.68"/>
<path vector-effect="none" fill-rule="evenodd" d="M876.725,1796.89 L894.441,1796.89 L894.441,1814.61 L876.725,1814.61 L876.725,1796.89"/>
<path vector-effect="none" fill-rule="evenodd" d="M674.418,2240.52 L692.135,2240.52 L692.135,2258.24 L674.418,2258.24 L674.418,2240.52"/>
<path vector-effect="none" fill-rule="evenodd" d="M747.29,2495.16 L765.007,2495.16 L765.007,2512.87 L747.29,2512.87 L747.29,2495.16"/>
<path vector-effect="none" fill-rule="evenodd" d="M755.971,2484.52 L773.687,2484.52 L773.687,2502.24 L755.971,2502.24 L755.971,2484.52"/>
<path vector-effect="none" fill-rule="evenodd" d="M760.765,844.286 L778.482,844.286 L778.482,862.003 L760.765,862.003 L760.765,844.286"/>
<path vector-effect="none" fill-rule="evenodd" d="M431.435,491.427 L449.152,491.427 L449.152,509.144 L431.435,509.144 L431.435,491.427"/>
<path vector-effect="none" fill-rule="evenodd" d="M765.998,2674.56 L783.715,2674.56 L783.715,2692.27 L765.998,2692.27 L765.998,2674.56"/>
</g>

<g fill="#e465ad" fill-opacity="1" stroke="#000000" stroke-opacity="1" stroke-width="2.3622" stroke-linecap="square" stroke-linejoin="bevel" transform="matrix(0.999751,0,0,0.999751,0,0)"
font-family="Ubuntu" font-size="45.8333" font-weight="400" font-style="normal" 
>
<path vector-effect="none" fill-rule="evenodd" d="M1783.39,2218.72 L1801.11,2218.72 L1801.11,2236.44 L1783.39,2236.44 L1783.39,2218.72"/>
<path vector-effect="none" fill-rule="evenodd" d="M1786.83,2250.55 L1804.55,2250.55 L1804.55,2268.26 L1786.83,2268.26 L1786.83,2250.55"/>
<path vector-effect="none" fill-rule="evenodd" d="M1422.7,3016.05 L1440.42,3016.05 L1440.42,3033.77 L1422.7,3033.77 L1422.7,3016.05"/>
<path vector-effect="none" fill-rule="evenodd" d="M1588.95,1733.69 L1606.67,1733.69 L1606.67,1751.41 L1588.95,1751.41 L1588.95,1733.69"/>
<path vector-effect="none" fill-rule="evenodd" d="M1079.76,1785.29 L1097.47,1785.29 L1097.47,1803 L1079.76,1803 L1079.76,1785.29"/>
<path vector-effect="none" fill-rule="evenodd" d="M1291.15,2523.92 L1308.87,2523.92 L1308.87,2541.64 L1291.15,2541.64 L1291.15,2523.92"/>
<path vector-effect="none" fill-rule="evenodd" d="M1355.74,2841.36 L1373.46,2841.36 L1373.46,2859.07 L1355.74,2859.07 L1355.74,2841.36"/>
<path vector-effect="none" fill-rule="evenodd" d="M991.536,2235.4 L1009.25,2235.4 L1009.25,2253.11 L991.536,2253.11 L991.536,2235.4"/>
<path vector-effect="none" fill-rule="evenodd" d="M899.642,1921.14 L917.358,1921.14 L917.358,1938.86 L899.642,1938.86 L899.642,1921.14"/>
<path vector-effect="none" fill-rule="evenodd" d="M914.546,1924.56 L932.263,1924.56 L932.263,1942.28 L914.546,1942.28 L914.546,1924.56"/>
<path vector-effect="none" fill-rule="evenodd" d="M938.408,1829.92 L956.124,1829.92 L956.124,1847.64 L938.408,1847.64 L938.408,1829.92"/>
<path vector-effect="none" fill-rule="evenodd" d="M937.587,1830.55 L955.304,1830.55 L955.304,1848.26 L937.587,1848.26 L937.587,1830.55"/>
<path vector-effect="none" fill-rule="evenodd" d="M1869.11,2057.58 L1886.82,2057.58 L1886.82,2075.3 L1869.11,2075.3 L1869.11,2057.58"/>
<path vector-effect="none" fill-rule="evenodd" d="M1866,2061.31 L1883.72,2061.31 L1883.72,2079.03 L1866,2079.03 L1866,2061.31"/>
<path vector-effect="none" fill-rule="evenodd" d="M1845.29,2064.95 L1863.01,2064.95 L1863.01,2082.66 L1845.29,2082.66 L1845.29,2064.95"/>
<path vector-effect="none" fill-rule="evenodd" d="M1808.51,1977.51 L1826.23,1977.51 L1826.23,1995.22 L1808.51,1995.22 L1808.51,1977.51"/>
<path vector-effect="none" fill-rule="evenodd" d="M1756.74,1922.02 L1774.46,1922.02 L1774.46,1939.74 L1756.74,1939.74 L1756.74,1922.02"/>
<path vector-effect="none" fill-rule="evenodd" d="M1829.67,1955.67 L1847.39,1955.67 L1847.39,1973.39 L1829.67,1973.39 L1829.67,1955.67"/>
<path vector-effect="none" fill-rule="evenodd" d="M1844.35,1960.7 L1862.06,1960.7 L1862.06,1978.41 L1844.35,1978.41 L1844.35,1960.7"/>
<path vector-effect="none" fill-rule="evenodd" d="M1853.67,1968.91 L1871.38,1968.91 L1871.38,1986.63 L1853.67,1986.63 L1853.67,1968.91"/>
<path vector-effect="none" fill-rule="evenodd" d="M1862.86,1977.54 L1880.58,1977.54 L1880.58,1995.25 L1862.86,1995.25 L1862.86,1977.54"/>
<path vector-effect="none" fill-rule="evenodd" d="M1867.8,1979.21 L1885.52,1979.21 L1885.52,1996.93 L1867.8,1996.93 L1867.8,1979.21"/>
<path vector-effect="none" fill-rule="evenodd" d="M1768.79,1918.44 L1786.51,1918.44 L1786.51,1936.16 L1768.79,1936.16 L1768.79,1918.44"/>
<path vector-effect="none" fill-rule="evenodd" d="M1803.11,1979.08 L1820.82,1979.08 L1820.82,1996.79 L1803.11,1996.79 L1803.11,1979.08"/>
<path vector-effect="none" fill-rule="evenodd" d="M1628.75,2032.23 L1646.46,2032.23 L1646.46,2049.95 L1628.75,2049.95 L1628.75,2032.23"/>
<path vector-effect="none" fill-rule="evenodd" d="M1675.93,1963.37 L1693.65,1963.37 L1693.65,1981.09 L1675.93,1981.09 L1675.93,1963.37"/>
<path vector-effect="none" fill-rule="evenodd" d="M1671.48,1862.86 L1689.2,1862.86 L1689.2,1880.58 L1671.48,1880.58 L1671.48,1862.86"/>
<path vector-effect="none" fill-rule="evenodd" d="M1636.09,1861.26 L1653.81,1861.26 L1653.81,1878.98 L1636.09,1878.98 L1636.09,1861.26"/>
<path vector-effect="none" fill-rule="evenodd" d="M1637.66,2528.5 L1655.37,2528.5 L1655.37,2546.21 L1637.66,2546.21 L1637.66,2528.5"/>
<path vector-effect="none" fill-rule="evenodd" d="M1615.49,2530.55 L1633.21,2530.55 L1633.21,2548.27 L1615.49,2548.27 L1615.49,2530.55"/>
<path vector-effect="none" fill-rule="evenodd" d="M1593.59,2536.85 L1611.3,2536.85 L1611.3,2554.56 L1593.59,2554.56 L1593.59,2536.85"/>
<path vector-effect="none" fill-rule="evenodd" d="M1316.77,2144.89 L1334.49,2144.89 L1334.49,2162.61 L1316.77,2162.61 L1316.77,2144.89"/>
<path vector-effect="none" fill-rule="evenodd" d="M874.3,749.802 L892.016,749.802 L892.016,767.519 L874.3,767.519 L874.3,749.802"/>
<path vector-effect="none" fill-rule="evenodd" d="M841.051,699.213 L858.768,699.213 L858.768,716.93 L841.051,716.93 L841.051,699.213"/>
</g>

<g fill="#000000" fill-opacity="1" stroke="#000000" stroke-opacity="1" stroke-width="2.3622" stroke-linecap="square" stroke-linejoin="bevel" transform="matrix(0.999751,0,0,0.999751,0,0)"
font-family="Ubuntu" font-size="45.8333" font-weight="400" font-style="normal" 
>
<path vector-effect="none" fill-rule="evenodd" d="M663.827,338.921 L681.544,338.921 L681.544,356.638 L663.827,356.638 L663.827,338.921"/>
<path vector-effect="none" fill-rule="evenodd" d="M657.151,327.533 L674.868,327.533 L674.868,345.249 L657.151,345.249 L657.151,327.533"/>
<path vector-effect="none" fill-rule="evenodd" d="M635.945,332.246 L653.661,332.246 L653.661,349.962 L635.945,349.962 L635.945,332.246"/>
<path vector-effect="none" fill-rule="evenodd" d="M522.725,413.77 L540.442,413.77 L540.442,431.486 L522.725,431.486 L522.725,413.77"/>
<path vector-effect="none" fill-rule="evenodd" d="M498.314,394.444 L516.031,394.444 L516.031,412.161 L498.314,412.161 L498.314,394.444"/>
<path vector-effect="none" fill-rule="evenodd" d="M489.532,337.308 L507.249,337.308 L507.249,355.024 L489.532,355.024 L489.532,337.308"/>
<path vector-effect="none" fill-rule="evenodd" d="M467.868,421.032 L485.584,421.032 L485.584,438.748 L467.868,438.748 L467.868,421.032"/>
<path vector-effect="none" fill-rule="evenodd" d="M997.611,2147.3 L1015.33,2147.3 L1015.33,2165.02 L997.611,2165.02 L997.611,2147.3"/>
<path vector-effect="none" fill-rule="evenodd" d="M992.319,2159.4 L1010.04,2159.4 L1010.04,2177.12 L992.319,2177.12 L992.319,2159.4"/>
<path vector-effect="none" fill-rule="evenodd" d="M1620.71,3172.54 L1638.43,3172.54 L1638.43,3190.25 L1620.71,3190.25 L1620.71,3172.54"/>
<path vector-effect="none" fill-rule="evenodd" d="M1437.39,2848.91 L1455.11,2848.91 L1455.11,2866.63 L1437.39,2866.63 L1437.39,2848.91"/>
<path vector-effect="none" fill-rule="evenodd" d="M1450.78,2843.17 L1468.49,2843.17 L1468.49,2860.89 L1450.78,2860.89 L1450.78,2843.17"/>
<path vector-effect="none" fill-rule="evenodd" d="M1445.41,2872.93 L1463.13,2872.93 L1463.13,2890.65 L1445.41,2890.65 L1445.41,2872.93"/>
<path vector-effect="none" fill-rule="evenodd" d="M1574.48,2772.52 L1592.2,2772.52 L1592.2,2790.24 L1574.48,2790.24 L1574.48,2772.52"/>
<path vector-effect="none" fill-rule="evenodd" d="M1581.4,2758.69 L1599.12,2758.69 L1599.12,2776.41 L1581.4,2776.41 L1581.4,2758.69"/>
<path vector-effect="none" fill-rule="evenodd" d="M1640.11,2565.21 L1657.83,2565.21 L1657.83,2582.92 L1640.11,2582.92 L1640.11,2565.21"/>
<path vector-effect="none" fill-rule="evenodd" d="M1594.18,2585.42 L1611.9,2585.42 L1611.9,2603.14 L1594.18,2603.14 L1594.18,2585.42"/>
<path vector-effect="none" fill-rule="evenodd" d="M1373.92,2400.74 L1391.64,2400.74 L1391.64,2418.46 L1373.92,2418.46 L1373.92,2400.74"/>
<path vector-effect="none" fill-rule="evenodd" d="M1395.9,2407.53 L1413.62,2407.53 L1413.62,2425.25 L1395.9,2425.25 L1395.9,2407.53"/>
<path vector-effect="none" fill-rule="evenodd" d="M1406.26,2436.63 L1423.98,2436.63 L1423.98,2454.35 L1406.26,2454.35 L1406.26,2436.63"/>
<path vector-effect="none" fill-rule="evenodd" d="M1400.19,2590.75 L1417.91,2590.75 L1417.91,2608.46 L1400.19,2608.46 L1400.19,2590.75"/>
<path vector-effect="none" fill-rule="evenodd" d="M776.821,674.863 L794.537,674.863 L794.537,692.579 L776.821,692.579 L776.821,674.863"/>
<path vector-effect="none" fill-rule="evenodd" d="M776.336,684.879 L794.053,684.879 L794.053,702.596 L776.336,702.596 L776.336,684.879"/>
<path vector-effect="none" fill-rule="evenodd" d="M931.204,2003.06 L948.921,2003.06 L948.921,2020.77 L931.204,2020.77 L931.204,2003.06"/>
<path vector-effect="none" fill-rule="evenodd" d="M944.958,2005.26 L962.675,2005.26 L962.675,2022.98 L944.958,2022.98 L944.958,2005.26"/>
<path vector-effect="none" fill-rule="evenodd" d="M968.445,2010.95 L986.162,2010.95 L986.162,2028.66 L968.445,2028.66 L968.445,2010.95"/>
<path vector-effect="none" fill-rule="evenodd" d="M969.016,1999.83 L986.733,1999.83 L986.733,2017.55 L969.016,2017.55 L969.016,1999.83"/>
<path vector-effect="none" fill-rule="evenodd" d="M1720.44,1743.76 L1738.15,1743.76 L1738.15,1761.48 L1720.44,1761.48 L1720.44,1743.76"/>
<path vector-effect="none" fill-rule="evenodd" d="M1731.09,1822.62 L1748.81,1822.62 L1748.81,1840.34 L1731.09,1840.34 L1731.09,1822.62"/>
<path vector-effect="none" fill-rule="evenodd" d="M1697.81,1894.82 L1715.53,1894.82 L1715.53,1912.53 L1697.81,1912.53 L1697.81,1894.82"/>
<path vector-effect="none" fill-rule="evenodd" d="M1801.64,2098.75 L1819.35,2098.75 L1819.35,2116.46 L1801.64,2116.46 L1801.64,2098.75"/>
<path vector-effect="none" fill-rule="evenodd" d="M1587.16,1954.28 L1604.87,1954.28 L1604.87,1971.99 L1587.16,1971.99 L1587.16,1954.28"/>
<path vector-effect="none" fill-rule="evenodd" d="M1597.79,1961.68 L1615.51,1961.68 L1615.51,1979.39 L1597.79,1979.39 L1597.79,1961.68"/>
<path vector-effect="none" fill-rule="evenodd" d="M1496.47,2103.3 L1514.19,2103.3 L1514.19,2121.02 L1496.47,2121.02 L1496.47,2103.3"/>
<path vector-effect="none" fill-rule="evenodd" d="M1392,2233.55 L1409.71,2233.55 L1409.71,2251.27 L1392,2251.27 L1392,2233.55"/>
<path vector-effect="none" fill-rule="evenodd" d="M1375.17,2244.83 L1392.88,2244.83 L1392.88,2262.55 L1375.17,2262.55 L1375.17,2244.83"/>
<path vector-effect="none" fill-rule="evenodd" d="M1492.22,2435.95 L1509.94,2435.95 L1509.94,2453.66 L1492.22,2453.66 L1492.22,2435.95"/>
<path vector-effect="none" fill-rule="evenodd" d="M1504.55,2475.58 L1522.27,2475.58 L1522.27,2493.29 L1504.55,2493.29 L1504.55,2475.58"/>
<path vector-effect="none" fill-rule="evenodd" d="M1599.48,2628.51 L1617.2,2628.51 L1617.2,2646.23 L1599.48,2646.23 L1599.48,2628.51"/>
<path vector-effect="none" fill-rule="evenodd" d="M1175.22,1903.54 L1192.94,1903.54 L1192.94,1921.26 L1175.22,1921.26 L1175.22,1903.54"/>
<path vector-effect="none" fill-rule="evenodd" d="M1171.92,1883.95 L1189.63,1883.95 L1189.63,1901.66 L1171.92,1901.66 L1171.92,1883.95"/>
<path vector-effect="none" fill-rule="evenodd" d="M649.928,646.269 L667.644,646.269 L667.644,663.986 L649.928,663.986 L649.928,646.269"/>
<path vector-effect="none" fill-rule="evenodd" d="M633.676,657.964 L651.392,657.964 L651.392,675.681 L633.676,675.681 L633.676,657.964"/>
<path vector-effect="none" fill-rule="evenodd" d="M1503.93,3113.06 L1521.64,3113.06 L1521.64,3130.78 L1503.93,3130.78 L1503.93,3113.06"/>
<path vector-effect="none" fill-rule="evenodd" d="M1483.94,3104.61 L1501.66,3104.61 L1501.66,3122.32 L1483.94,3122.32 L1483.94,3104.61"/>
<path vector-effect="none" fill-rule="evenodd" d="M1485.55,3121.18 L1503.26,3121.18 L1503.26,3138.9 L1485.55,3138.9 L1485.55,3121.18"/>
<path vector-effect="none" fill-rule="evenodd" d="M1481.28,3132.71 L1499,3132.71 L1499,3150.42 L1481.28,3150.42 L1481.28,3132.71"/>
<path vector-effect="none" fill-rule="evenodd" d="M1470.23,3139.75 L1487.94,3139.75 L1487.94,3157.47 L1470.23,3157.47 L1470.23,3139.75"/>
<path vector-effect="none" fill-rule="evenodd" d="M536.392,588.507 L554.109,588.507 L554.109,606.224 L536.392,606.224 L536.392,588.507"/>
<path vector-effect="none" fill-rule="evenodd" d="M788.487,2653.23 L806.204,2653.23 L806.204,2670.94 L788.487,2670.94 L788.487,2653.23"/>
<path vector-effect="none" fill-rule="evenodd" d="M917.46,1943.6 L935.176,1943.6 L935.176,1961.31 L917.46,1961.31 L917.46,1943.6"/>
</g>

<g fill="#ff7f00" fill-opacity="1" stroke="#000000" stroke-opacity="1" stroke-width="2.3622" stroke-linecap="square" stroke-linejoin="bevel" transform="matrix(0.999751,0,0,0.999751,0,0)"
font-family="Ubuntu" font-size="45.8333" font-weight="400" font-style="normal" 
>
<path vector-effect="none" fill-rule="evenodd" d="M955.603,2679.17 L973.319,2679.17 L973.319,2696.89 L955.603,2696.89 L955.603,2679.17"/>
<path vector-effect="none" fill-rule="evenodd" d="M988.203,1650.06 L1005.92,1650.06 L1005.92,1667.77 L988.203,1667.77 L988.203,1650.06"/>
<path vector-effect="none" fill-rule="evenodd" d="M1328.83,1640.37 L1346.54,1640.37 L1346.54,1658.09 L1328.83,1658.09 L1328.83,1640.37"/>
<path vector-effect="none" fill-rule="evenodd" d="M1261.8,1754.1 L1279.52,1754.1 L1279.52,1771.82 L1261.8,1771.82 L1261.8,1754.1"/>
<path vector-effect="none" fill-rule="evenodd" d="M978.631,1356.81 L996.348,1356.81 L996.348,1374.52 L978.631,1374.52 L978.631,1356.81"/>
<path vector-effect="none" fill-rule="evenodd" d="M1014.59,1416.83 L1032.3,1416.83 L1032.3,1434.55 L1014.59,1434.55 L1014.59,1416.83"/>
<path vector-effect="none" fill-rule="evenodd" d="M1092.34,1414.88 L1110.06,1414.88 L1110.06,1432.6 L1092.34,1432.6 L1092.34,1414.88"/>
<path vector-effect="none" fill-rule="evenodd" d="M1146.06,1513.65 L1163.78,1513.65 L1163.78,1531.36 L1146.06,1531.36 L1146.06,1513.65"/>
<path vector-effect="none" fill-rule="evenodd" d="M1064.29,975.14 L1082,975.14 L1082,992.856 L1064.29,992.856 L1064.29,975.14"/>
<path vector-effect="none" fill-rule="evenodd" d="M1034.95,982.523 L1052.67,982.523 L1052.67,1000.24 L1034.95,1000.24 L1034.95,982.523"/>
<path vector-effect="none" fill-rule="evenodd" d="M1135.33,966.16 L1153.04,966.16 L1153.04,983.876 L1135.33,983.876 L1135.33,966.16"/>
<path vector-effect="none" fill-rule="evenodd" d="M1315.99,1242.78 L1333.7,1242.78 L1333.7,1260.5 L1315.99,1260.5 L1315.99,1242.78"/>
<path vector-effect="none" fill-rule="evenodd" d="M1207.07,1349.28 L1224.79,1349.28 L1224.79,1367 L1207.07,1367 L1207.07,1349.28"/>
<path vector-effect="none" fill-rule="evenodd" d="M1088.85,1335.33 L1106.56,1335.33 L1106.56,1353.05 L1088.85,1353.05 L1088.85,1335.33"/>
<path vector-effect="none" fill-rule="evenodd" d="M1450.03,1290.37 L1467.75,1290.37 L1467.75,1308.09 L1450.03,1308.09 L1450.03,1290.37"/>
<path vector-effect="none" fill-rule="evenodd" d="M1612.24,1398.16 L1629.95,1398.16 L1629.95,1415.88 L1612.24,1415.88 L1612.24,1398.16"/>
<path vector-effect="none" fill-rule="evenodd" d="M1502.26,1529.42 L1519.98,1529.42 L1519.98,1547.14 L1502.26,1547.14 L1502.26,1529.42"/>
<path vector-effect="none" fill-rule="evenodd" d="M1415.42,1613.51 L1433.13,1613.51 L1433.13,1631.23 L1415.42,1631.23 L1415.42,1613.51"/>
<path vector-effect="none" fill-rule="evenodd" d="M1476.51,1541.51 L1494.23,1541.51 L1494.23,1559.23 L1476.51,1559.23 L1476.51,1541.51"/>
<path vector-effect="none" fill-rule="evenodd" d="M1606.06,1589.07 L1623.78,1589.07 L1623.78,1606.79 L1606.06,1606.79 L1606.06,1589.07"/>
<path vector-effect="none" fill-rule="evenodd" d="M1423.69,1453.87 L1441.41,1453.87 L1441.41,1471.59 L1423.69,1471.59 L1423.69,1453.87"/>
<path vector-effect="none" fill-rule="evenodd" d="M1448.26,1395.93 L1465.98,1395.93 L1465.98,1413.65 L1448.26,1413.65 L1448.26,1395.93"/>
<path vector-effect="none" fill-rule="evenodd" d="M1650.34,1288.85 L1668.05,1288.85 L1668.05,1306.56 L1650.34,1306.56 L1650.34,1288.85"/>
<path vector-effect="none" fill-rule="evenodd" d="M1534.19,1398.56 L1551.91,1398.56 L1551.91,1416.27 L1534.19,1416.27 L1534.19,1398.56"/>
<path vector-effect="none" fill-rule="evenodd" d="M1497.93,1610.09 L1515.64,1610.09 L1515.64,1627.81 L1497.93,1627.81 L1497.93,1610.09"/>
<path vector-effect="none" fill-rule="evenodd" d="M1714.32,1533.36 L1732.04,1533.36 L1732.04,1551.08 L1714.32,1551.08 L1714.32,1533.36"/>
<path vector-effect="none" fill-rule="evenodd" d="M1248.79,1507.43 L1266.51,1507.43 L1266.51,1525.15 L1248.79,1525.15 L1248.79,1507.43"/>
<path vector-effect="none" fill-rule="evenodd" d="M1135.49,2899.26 L1153.21,2899.26 L1153.21,2916.98 L1135.49,2916.98 L1135.49,2899.26"/>
<path vector-effect="none" fill-rule="evenodd" d="M1338.22,1353.42 L1355.93,1353.42 L1355.93,1371.14 L1338.22,1371.14 L1338.22,1353.42"/>
<path vector-effect="none" fill-rule="evenodd" d="M1296.57,1419.2 L1314.28,1419.2 L1314.28,1436.91 L1296.57,1436.91 L1296.57,1419.2"/>
<path vector-effect="none" fill-rule="evenodd" d="M1383.75,1488.52 L1401.47,1488.52 L1401.47,1506.24 L1383.75,1506.24 L1383.75,1488.52"/>
<path vector-effect="none" fill-rule="evenodd" d="M1644.09,1203.06 L1661.8,1203.06 L1661.8,1220.77 L1644.09,1220.77 L1644.09,1203.06"/>
<path vector-effect="none" fill-rule="evenodd" d="M1738.92,1189.8 L1756.63,1189.8 L1756.63,1207.51 L1738.92,1207.51 L1738.92,1189.8"/>
<path vector-effect="none" fill-rule="evenodd" d="M1311.12,1886.21 L1328.84,1886.21 L1328.84,1903.93 L1311.12,1903.93 L1311.12,1886.21"/>
<path vector-effect="none" fill-rule="evenodd" d="M1072.5,1757.85 L1090.22,1757.85 L1090.22,1775.57 L1072.5,1775.57 L1072.5,1757.85"/>
<path vector-effect="none" fill-rule="evenodd" d="M1082.17,1925.91 L1099.89,1925.91 L1099.89,1943.63 L1082.17,1943.63 L1082.17,1925.91"/>
<path vector-effect="none" fill-rule="evenodd" d="M1130.31,1950.18 L1148.02,1950.18 L1148.02,1967.9 L1130.31,1967.9 L1130.31,1950.18"/>
<path vector-effect="none" fill-rule="evenodd" d="M1211.97,2114.13 L1229.69,2114.13 L1229.69,2131.85 L1211.97,2131.85 L1211.97,2114.13"/>
<path vector-effect="none" fill-rule="evenodd" d="M879.968,2257.3 L897.684,2257.3 L897.684,2275.02 L879.968,2275.02 L879.968,2257.3"/>
<path vector-effect="none" fill-rule="evenodd" d="M1219.31,2239.85 L1237.02,2239.85 L1237.02,2257.57 L1219.31,2257.57 L1219.31,2239.85"/>
<path vector-effect="none" fill-rule="evenodd" d="M1054.93,2320.91 L1072.65,2320.91 L1072.65,2338.62 L1054.93,2338.62 L1054.93,2320.91"/>
<path vector-effect="none" fill-rule="evenodd" d="M1081.43,2514.93 L1099.14,2514.93 L1099.14,2532.64 L1081.43,2532.64 L1081.43,2514.93"/>
<path vector-effect="none" fill-rule="evenodd" d="M1264.79,2584.5 L1282.51,2584.5 L1282.51,2602.21 L1264.79,2602.21 L1264.79,2584.5"/>
<path vector-effect="none" fill-rule="evenodd" d="M1232.04,2634.1 L1249.75,2634.1 L1249.75,2651.82 L1232.04,2651.82 L1232.04,2634.1"/>
<path vector-effect="none" fill-rule="evenodd" d="M1297.93,2722.91 L1315.65,2722.91 L1315.65,2740.62 L1297.93,2740.62 L1297.93,2722.91"/>
<path vector-effect="none" fill-rule="evenodd" d="M1345.27,2841.82 L1362.98,2841.82 L1362.98,2859.53 L1345.27,2859.53 L1345.27,2841.82"/>
<path vector-effect="none" fill-rule="evenodd" d="M1184.32,2765.7 L1202.04,2765.7 L1202.04,2783.42 L1184.32,2783.42 L1184.32,2765.7"/>
<path vector-effect="none" fill-rule="evenodd" d="M1072.04,2945.2 L1089.76,2945.2 L1089.76,2962.92 L1072.04,2962.92 L1072.04,2945.2"/>
<path vector-effect="none" fill-rule="evenodd" d="M977.765,1436.54 L995.482,1436.54 L995.482,1454.26 L977.765,1454.26 L977.765,1436.54"/>
<path vector-effect="none" fill-rule="evenodd" d="M1341.01,1131.7 L1358.73,1131.7 L1358.73,1149.42 L1341.01,1149.42 L1341.01,1131.7"/>
<path vector-effect="none" fill-rule="evenodd" d="M1586.75,1380.69 L1604.46,1380.69 L1604.46,1398.41 L1586.75,1398.41 L1586.75,1380.69"/>
<path vector-effect="none" fill-rule="evenodd" d="M1729.83,1541.38 L1747.55,1541.38 L1747.55,1559.09 L1729.83,1559.09 L1729.83,1541.38"/>
<path vector-effect="none" fill-rule="evenodd" d="M1013.67,2246.81 L1031.39,2246.81 L1031.39,2264.53 L1013.67,2264.53 L1013.67,2246.81"/>
<path vector-effect="none" fill-rule="evenodd" d="M992.935,2466.03 L1010.65,2466.03 L1010.65,2483.75 L992.935,2483.75 L992.935,2466.03"/>
<path vector-effect="none" fill-rule="evenodd" d="M1164.48,2553.67 L1182.19,2553.67 L1182.19,2571.39 L1164.48,2571.39 L1164.48,2553.67"/>
<path vector-effect="none" fill-rule="evenodd" d="M1227.68,2924.75 L1245.4,2924.75 L1245.4,2942.47 L1227.68,2942.47 L1227.68,2924.75"/>
</g>

<g fill="#e465ad" fill-opacity="1" stroke="#000000" stroke-opacity="1" stroke-width="2.3622" stroke-linecap="square" stroke-linejoin="bevel" transform="matrix(0.999751,0,0,0.999751,0,0)"
font-family="Ubuntu" font-size="45.8333" font-weight="400" font-style="normal" 
>
<path vector-effect="none" fill-rule="evenodd" d="M524.208,457.155 L541.925,457.155 L541.925,474.871 L524.208,474.871 L524.208,457.155"/>
<path vector-effect="none" fill-rule="evenodd" d="M652.579,715.847 L670.296,715.847 L670.296,733.564 L652.579,733.564 L652.579,715.847"/>
</g>

<g fill="#33a02c" fill-opacity="1" stroke="#000000" stroke-opacity="1" stroke-width="2.3622" stroke-linecap="square" stroke-linejoin="bevel" transform="matrix(0.999751,0,0,0.999751,0,0)"
font-family="Ubuntu" font-size="45.8333" font-weight="400" font-style="normal" 
>
<path vector-effect="none" fill-rule="evenodd" d="M882.954,2931.76 L900.671,2931.76 L900.671,2949.47 L882.954,2949.47 L882.954,2931.76"/>
<path vector-effect="none" fill-rule="evenodd" d="M746.118,2966.1 L763.835,2966.1 L763.835,2983.82 L746.118,2983.82 L746.118,2966.1"/>
<path vector-effect="none" fill-rule="evenodd" d="M716.679,2896.68 L734.396,2896.68 L734.396,2914.4 L716.679,2914.4 L716.679,2896.68"/>
<path vector-effect="none" fill-rule="evenodd" d="M552.031,754.014 L569.748,754.014 L569.748,771.73 L552.031,771.73 L552.031,754.014"/>
<path vector-effect="none" fill-rule="evenodd" d="M506.419,684.233 L524.136,684.233 L524.136,701.95 L506.419,701.95 L506.419,684.233"/>
<path vector-effect="none" fill-rule="evenodd" d="M461.534,669.332 L479.251,669.332 L479.251,687.049 L461.534,687.049 L461.534,669.332"/>
<path vector-effect="none" fill-rule="evenodd" d="M278.722,546.671 L296.439,546.671 L296.439,564.388 L278.722,564.388 L278.722,546.671"/>
<path vector-effect="none" fill-rule="evenodd" d="M307.071,534.496 L324.787,534.496 L324.787,552.212 L307.071,552.212 L307.071,534.496"/>
<path vector-effect="none" fill-rule="evenodd" d="M834.429,1670.43 L852.146,1670.43 L852.146,1688.15 L834.429,1688.15 L834.429,1670.43"/>
<path vector-effect="none" fill-rule="evenodd" d="M744.839,1268.28 L762.556,1268.28 L762.556,1286 L744.839,1286 L744.839,1268.28"/>
<path vector-effect="none" fill-rule="evenodd" d="M762.467,1372.59 L780.183,1372.59 L780.183,1390.31 L762.467,1390.31 L762.467,1372.59"/>
<path vector-effect="none" fill-rule="evenodd" d="M664.881,1052.4 L682.598,1052.4 L682.598,1070.12 L664.881,1070.12 L664.881,1052.4"/>
<path vector-effect="none" fill-rule="evenodd" d="M681.059,2129.82 L698.775,2129.82 L698.775,2147.54 L681.059,2147.54 L681.059,2129.82"/>
<path vector-effect="none" fill-rule="evenodd" d="M679.242,2126.55 L696.958,2126.55 L696.958,2144.27 L679.242,2144.27 L679.242,2126.55"/>
<path vector-effect="none" fill-rule="evenodd" d="M600.376,2415.12 L618.092,2415.12 L618.092,2432.84 L600.376,2432.84 L600.376,2415.12"/>
<path vector-effect="none" fill-rule="evenodd" d="M743.203,1067.66 L760.92,1067.66 L760.92,1085.38 L743.203,1085.38 L743.203,1067.66"/>
<path vector-effect="none" fill-rule="evenodd" d="M653.795,867.407 L671.512,867.407 L671.512,885.124 L653.795,885.124 L653.795,867.407"/>
<path vector-effect="none" fill-rule="evenodd" d="M587.649,735.478 L605.365,735.478 L605.365,753.194 L587.649,753.194 L587.649,735.478"/>
<path vector-effect="none" fill-rule="evenodd" d="M751.38,1072.93 L769.097,1072.93 L769.097,1090.65 L751.38,1090.65 L751.38,1072.93"/>
<path vector-effect="none" fill-rule="evenodd" d="M643.256,867.225 L660.972,867.225 L660.972,884.942 L643.256,884.942 L643.256,867.225"/>
<path vector-effect="none" fill-rule="evenodd" d="M634.897,873.404 L652.613,873.404 L652.613,891.12 L634.897,891.12 L634.897,873.404"/>
<path vector-effect="none" fill-rule="evenodd" d="M871.317,1329.16 L889.034,1329.16 L889.034,1346.88 L871.317,1346.88 L871.317,1329.16"/>
<path vector-effect="none" fill-rule="evenodd" d="M796.631,1684.06 L814.348,1684.06 L814.348,1701.78 L796.631,1701.78 L796.631,1684.06"/>
<path vector-effect="none" fill-rule="evenodd" d="M738.845,1951.92 L756.562,1951.92 L756.562,1969.63 L738.845,1969.63 L738.845,1951.92"/>
<path vector-effect="none" fill-rule="evenodd" d="M1279.28,2329.53 L1297,2329.53 L1297,2347.25 L1279.28,2347.25 L1279.28,2329.53"/>
<path vector-effect="none" fill-rule="evenodd" d="M1377.23,2549.41 L1394.95,2549.41 L1394.95,2567.13 L1377.23,2567.13 L1377.23,2549.41"/>
<path vector-effect="none" fill-rule="evenodd" d="M1520.43,2805.64 L1538.15,2805.64 L1538.15,2823.36 L1520.43,2823.36 L1520.43,2805.64"/>
<path vector-effect="none" fill-rule="evenodd" d="M1647.81,2213.59 L1665.53,2213.59 L1665.53,2231.31 L1647.81,2231.31 L1647.81,2213.59"/>
<path vector-effect="none" fill-rule="evenodd" d="M511.689,775.82 L529.406,775.82 L529.406,793.537 L511.689,793.537 L511.689,775.82"/>
<path vector-effect="none" fill-rule="evenodd" d="M796.631,1684.06 L814.348,1684.06 L814.348,1701.78 L796.631,1701.78 L796.631,1684.06"/>
<path vector-effect="none" fill-rule="evenodd" d="M1142.62,925.919 L1160.34,925.919 L1160.34,943.636 L1142.62,943.636 L1142.62,925.919"/>
<path vector-effect="none" fill-rule="evenodd" d="M1392.31,1075.11 L1410.03,1075.11 L1410.03,1092.83 L1392.31,1092.83 L1392.31,1075.11"/>
<path vector-effect="none" fill-rule="evenodd" d="M1723.41,2086.02 L1741.13,2086.02 L1741.13,2103.74 L1723.41,2103.74 L1723.41,2086.02"/>
</g>

<g fill="none" stroke="#000000" stroke-opacity="1" stroke-width="1" stroke-linecap="square" stroke-linejoin="bevel" transform="matrix(11.8081,0,0,11.8081,0,0)"
font-family="Ubuntu" font-size="45.8333" font-weight="400" font-style="normal" 
>
</g>

<g fill="none" stroke="#000000" stroke-opacity="1" stroke-width="1" stroke-linecap="square" stroke-linejoin="bevel" transform="matrix(11.8081,0,0,11.8081,0,0)"
font-family="Ubuntu" font-size="45.8333" font-weight="400" font-style="normal" 
>
</g>

<g fill="none" stroke="#000000" stroke-opacity="1" stroke-width="1" stroke-linecap="square" stroke-linejoin="bevel" transform="matrix(11.8081,0,0,11.8081,0,0)"
font-family="Ubuntu" font-size="45.8333" font-weight="400" font-style="normal" 
>
</g>

<g fill="none" stroke="#000000" stroke-opacity="1" stroke-width="1" stroke-linecap="square" stroke-linejoin="bevel" transform="matrix(1,0,0,1,0,0)"
font-family="Ubuntu" font-size="45.8333" font-weight="400" font-style="normal" 
>
</g>

<g fill="none" stroke="#000000" stroke-opacity="1" stroke-width="1" stroke-linecap="square" stroke-linejoin="bevel" transform="matrix(11.8081,0,0,11.8081,0,0)"
font-family="Ubuntu" font-size="45.8333" font-weight="400" font-style="normal" 
>
</g>

<g fill="none" stroke="#000000" stroke-opacity="1" stroke-width="1" stroke-linecap="square" stroke-linejoin="bevel" transform="matrix(11.8081,0,0,11.8081,0,0)"
font-family="Ubuntu" font-size="45.8333" font-weight="400" font-style="normal" 
>
</g>

<g fill="none" stroke="#000000" stroke-opacity="1" stroke-width="1" stroke-linecap="square" stroke-linejoin="bevel" transform="matrix(11.8081,0,0,11.8081,0,0)"
font-family="Ubuntu" font-size="45.8333" font-weight="400" font-style="normal" 
>
</g>

<g fill="none" stroke="#000000" stroke-opacity="1" stroke-width="1" stroke-linecap="square" stroke-linejoin="bevel" transform="matrix(11.8081,0,0,11.8081,0,0)"
font-family="Ubuntu" font-size="45.8333" font-weight="400" font-style="normal" 
>
</g>

<g fill="none" stroke="#000000" stroke-opacity="1" stroke-width="1" stroke-linecap="square" stroke-linejoin="bevel" transform="matrix(11.8081,0,0,11.8081,0,0)"
font-family="Ubuntu" font-size="45.8333" font-weight="400" font-style="normal" 
>
</g>

<g fill="none" stroke="#000000" stroke-opacity="1" stroke-width="1" stroke-linecap="square" stroke-linejoin="bevel" transform="matrix(11.8081,0,0,11.8081,0,0)"
font-family="Ubuntu" font-size="45.8333" font-weight="400" font-style="normal" 
>
</g>

<g fill="none" stroke="#000000" stroke-opacity="1" stroke-width="1" stroke-linecap="square" stroke-linejoin="bevel" transform="matrix(1,0,0,1,0,0)"
font-family="Ubuntu" font-size="45.8333" font-weight="400" font-style="normal" 
>
</g>
</g>
</svg>
